<mxfile host="Electron" agent="Mozilla/5.0 (Windows NT 10.0; Win64; x64) AppleWebKit/537.36 (KHTML, like Gecko) draw.io/27.0.9 Chrome/134.0.6998.205 Electron/35.4.0 Safari/537.36" version="27.0.9">
  <diagram name="Page-1" id="PCCDhsdI_hzsKrpZSls4">
    <mxGraphModel dx="1489" dy="1747" grid="1" gridSize="10" guides="1" tooltips="1" connect="1" arrows="1" fold="1" page="1" pageScale="1" pageWidth="1100" pageHeight="850" math="0" shadow="0">
      <root>
        <mxCell id="0" />
        <mxCell id="1" parent="0" />
        <mxCell id="HKypCNGywmoDcbvKpc3D-2" value="" style="shape=image;verticalLabelPosition=bottom;labelBackgroundColor=default;verticalAlign=top;aspect=fixed;imageAspect=0;image=data:image/png,iVBORw0KGgoAAAANSUhEUgAAA1UAAAJJCAIAAADN/orFAAAgAElEQVR4AezdB3hUddbH8XFta9t17buAim1t79p1LSuKgopdEKRIF5EiogjSew+9Q5BOqFKltySUGFoglAQCSUhCAum9575PAgkpkwS5J2TO3G8eniVzZ+6Z8//977n7MSFgM/ggARIgARIgARIgARKwUgI2Ky2WtZIACZAACZAACZAACRj4j4uABEiABEiABEiABKyVAP6z1n6zWhIgARIgARIgARLAf1wDJEACJEACJEACJGCtBPCftfab1ZIACZAACZAACZAA/uMaIAESIAESIAESIAFrJYD/rLXfrJYESIAESIAESIAE8B/XAAmQAAmQAAmQAAlYKwH8Z639ZrUkQAIkQAIkQAIkgP+4BkiABEiABEiABEjAWgngP2vtN6slARIgARIgARIgAfzHNUACJEACJEACJEAC1koA/1lrv1ktCZAACZAACZAACeA/rgESIAESIAESIAESsFYC+M9a+81qSYAESIAESIAESAD/cQ2QAAmQAAmQAAmQgLUSwH/W2m9WSwIkQAIkQAIkQAL4j2uABEiABEiABEiABKyVAP6z1n6zWhIgARIgARIgARLAf1wDJEACJEACJEACJGCtBLT4LyctPvTgtpUrN+0+Hp6QVcoeJYTs3bZh5cqDodk5pbyCwyRAAiRAAiRAAiRg+QS0+C875uTmbrXvst353+9n7IrKtLtvcTsGffro7bYn+2/LBIB2E+IgCZAACZAACZAACRiGFv8ZmUlnVg39qrrt9hrtJh86l2Fn76J39/roxdtszwzbeTbbztMcIgESIAESIAESIAESyE1Ajf8MIyNwx5SGj9v+/lobtwPhJb4CmHJqTf+aj//N9mpv74hE9pYESIAESIAESIAESKC0BBT5z0g/s7P/18/Ybr6n+fiN4clFV5R80u2nTx+8wVZz0PpzSXz5r2g4PCIBEiABEiABEiCBQglo8p+RFbZ+cIunbLZbvhy6L6TIF/kS/dZ2/PCx62xvj9hyIoUf/ii0wXxKAiRAAiRAAiRAAsUScDD/5WSnJcdFxcQlpWUWKC4jOSY6JiY5PdswckJ2jKr3wnW2a+tM2BWUVvCKnMTDy3vXevC6v37ab2dgXLEV8pAESIAESIAESIAESKBwAo7lv8zE8FWD6txx/zNNx24MT837Nm5G3PJ2d9/28CvDPSJz+w736tPs9Zuus9UZuT0m9SIAs+P8F3b7tMqNz3w/fVdkWuHVlf15VtL5IL8jPj4nI1L5eeGyo+JZEiABEiABEiABJ0rAsfxnGJnRJzf0+qDaIy81me0Zlm6kR3gMq3lH9dpDPGIuhp50eEHnVx+40fbWYN+olLxj2THH1v1Up9otLzaf5RWafvl7kxK4sGez99+t8d7PC4NSS/w8yeXX4ZUkQAIkQAIkQAIkoCoBR/OfYWTEHl46pFb1Z9/5ed7ew+t7fPzAY2/32pevP8Mwko4taf76QzfYXh67P+8rglkJvqsG1frnra+2Hr3v7J/46p8RuLFVkz4TdgRcUKSqXaNZEiABEiABEiABErjyBBzPf4aRHu03r/fH1Z975aPaL9399Hsj3c8UWV/Kidlt3vznX20vDN9jGEZmXNCyvh/ddfvzbSduL/hrAdMTT2wZtXDt2oW9e09a6X4q0Ug+sXH6sAG9e/fuP3rirnDDSIs88fukjs++9u6nrTv1+G1/agY/MlwkYx6QAAmQAAmQAAk4cQKO6D/DyIj2ntPwjfttNtsjrWedSSr2tz2n+S3s+FSVm22P9w8wsmNPb+tR+447X64/bWdYwTdxEyNWf3fr/33SsP/QX1fuPHT2lNfE1j9/P2bS1JnTp/f9rkO333xj4kK9FvX73wcNWvcdNcPzRHoW/nPii5ylkQAJkAAJkAAJFEnAMf0XfeDXnjXuvs1ms93+UOMlfkX+qhfDMNJPLW/6dLUbbNUm+aYEbBxW47aqtVrN8E0s4J+RGLHi+6pPDVoRlvu3BCb6z/rum05Tt51PycrJTj+xfeL3n7kciDdyv//b1WXOvpBiuiwSDw9IgARIgARIgARIwOkScET/Rfou7fz+7W837TPbpf0j/7y7aq9NxWPPTNo24MU7brE9OWjr7wPe+euDr7dbeKQw4xIjVnR57IVZvnnnxewd+cVbj1V56N+PP/HEE088+tBjr73VyzMK/xUPlcckQAIkQAIkQAIWScDR/JeTHeU36+cPb3r8o0FrjyZmhC3v+Mztt/99iHtaVtENydo/rvpdt15zw0033XDdozUarDxZ5Bu4RfwXu3/0l70mrdwXHh+fkPeRlJyWlYP/igbKIxIgARIgARIgAcsk4Fj+y86KO7C069s3P9Kw5/JTSXmbcGTu8w/97e4HuqyLTi26KUdHP323zWazXVe1ZoslwUWfK+I/I9771/YdB03w8PY5evTo0eP+gecSczXJ93+LhsYjEiABEiABEiABiyTgWP5LiwtZNrh2ox8GbPK/9Gf+Ds2pX/vzr35cfbLYlhxd0Kh27dq1v/pm4JagYk+lxOya3rL9xsCCw/Herj80+CT35bU/a/Tz7H3xhmFE7BvtumzzichLf2yw4OV8QgIkQAIkQAIkQALOm4Bj+c95c2ZlJEACJEACJEACJOAoCeA/R9kJ+iABEiABEiABEiCBq5MA/rs6OfMuJEACJEACJEACJOAoCeA/R9kJ+iABEiABEiABEiCBq5MA/rs6OfMuJEACJEACJEACJOAoCeA/R9kJ+iABEiABEiABEiCBq5MA/rs6OfMuJEACJEACJEACJOAoCeA/R9kJ+iABEiABEiABEiCBq5MA/rs6OfMuJEACJEACJEACJOAoCVxt/4XtmTp6zDK/S/+6R34QZ71GjRw+ZMjIaXO2ByfnHYz2WzJn8pAhQ4YOczuWkP8yficBEiABEiABEiABEjCXwNX0X4Tn2KFTpnb6+J76y8OKdp1w1K19xxb9xo0fNfzHNt/1X3MyOSVkx9ghHX8aNGL8pAEtvmgweX/uv9jGBwmQAAmQAAmQAAmQgOkErqb/EoN27TgasrXnPxsW81/sntGvtxh3NDI9OyNu7zKXLq1d9x5Y2/GXgfM9g9OzjYTTc79+ruvOGNNrpQAJkAAJkAAJkAAJkIBhXE3/Xcj7j97/Ku6/iA296k/ekZCWbRjJJ7fMHljXZct2tz5TZu4MzP0+cVa6R/dqzdeGs10kQAIkQAIkQAIkQAICCTiK/1rM2JmYXuC/UVu2uw2eMccr708C5vmvxe8RZa02KCgoMDCwrFc4+3MeHh45OTnOvspS13fu3Lnjx4+X+rQFnvD29k5JSbHAQu0vMT4+/uDBg/afs8ZRX1/f6Ohoa6zVziozMjJ2795t5wnLHAoICAgLK/Ynqyyz+LyFuru7W2vBRVcbGhoaEBBQ9Fg5jxzCf5HbBj37w6zQ+Iyc7MQjv88Z9s3Sw0eWteo7fNn+8OwcIy3m985PjjxU5kK8vb29vLzKfImTPzlp0qTs7GwnX2Tpy/P399+4cWPpzzv/M/Pnz4+Jse4fkoiIiFi6dKnzb3PpK1y9enVQUFDpzzv5MykpKa6urk6+yDKX5+7ufuhQ2f8/Web5+p+cMGGC/kVc+Qp8fHw8PDz+1PlX038Z0YE+e3ZOa3bXuwNXeR0KjMkw0mOC/E+fDk8598eQ9xp3n7tp27pVw7t2+GmRT0LSyUU//9yl/8w1Wz0W9WpWe8i2sv/DFv/hP/yH//7Uvc/JXoz/8B/+c7Kh/lPLcXD/Jfi49f2uecPcj5btByw5lGjEHlo2ZcGCbWcTjRjvmS2bN2nY8Jseg7dc+BJ2ov/Gwb9827BhwyZfzz5ZXgz4D//hP/xX3n3CmZ/Hf/gP/znzhJe3Ngf3X3ntm3ge/+E//If/TNxC1J+K//Af/lM/xiYWgP9MhKf8VPyH//Cf8iE21T7+w3/4z9QIKT8Z/ynfQBPt4z/8h/9MDJD6U/Ef/sN/6sfYxALwn4nwlJ+K//Af/lM+xKbax3/4D/+ZGiHlJ+M/5Rtoon38h//wn4kBUn8q/sN/+E/9GJtYAP4zEZ7yU/Ef/sN/yofYVPv4D//hP1MjpPxk/Kd8A020j//wH/4zMUDqT8V/+A//qR9jEwvAfybCU34q/sN/+E/5EJtqH//hP/xnaoSUn4z/lG+gifbxH/7DfyYGSP2p+A//4T/1Y2xiAfjPRHjKT8V/+A//KR9iU+3jP/yH/0yNkPKT8Z/yDTTRPv7Df/jPxACpPxX/4T/8p36MTSwA/5kIT/mp+A//4T/lQ2yqffyH//CfqRFSfjL+U76BJtrHf/gP/5kYIPWn4j/8h//Uj7GJBeA/E+EpPxX/4T/8p3yITbWP//Af/jM1QspPxn/KN9BE+/gP/+E/EwOk/lT8h//wn/oxNrEA/GciPOWn4j/8h/+UD7Gp9vEf/sN/pkZI+cn4T/kGmmgf/+E//GdigNSfiv/wH/5TP8YmFoD/TISn/FT8h//wn/IhNtU+/sN/+M/UCCk/Gf8p30AT7eM//If/TAyQ+lPxH/7Df+rH2MQC8J+J8JSfiv/wH/5TPsSm2sd/+A//mRoh5SfjP+UbaKJ9/If/8J+JAVJ/Kv7Df/hP/RibWAD+MxGe8lPxH/7Df8qH2FT7+A//4T9TI6T8ZPynfANNtI//8B/+MzFA6k/Ff/gP/6kfYxMLwH8mwlN+Kv7Df/hP+RCbah//4T/8Z2qElJ+M/5RvoIn28R/+w38mBkj9qfgP/+E/9WNsYgH4z0R4yk/Ff/gP/ykfYlPt4z/8h/9MjZDyk/Gf8g000T7+w3/4z8QAqT8V/+E//Kd+jE0sAP+ZCE/5qfgP/+E/5UNsqn38h//wn6kRUn4y/lO+gSbax3/4D/+ZGCD1p+I//If/1I+xiQXgPxPhKT8V/+E//Kd8iE21j//wH/4zNULKT8Z/yjfQRPv4D//hPxMDpP5U/If/8J/6MTaxAPxnIjzlp+I//If/lA+xqfbxH/7Df6ZGSPnJ+E/5BppoH//hP/xnYoDUn4r/8B/+Uz/GJhaA/0yEp/xU/If/8J/yITbVPv7Df/jP1AgpPxn/Kd9AE+3jP/yH/0wMkPpT8R/+w3/qx9jEAvCfifCUn4r/8B/+Uz7EptrHf/gP/5kaIeUn4z/lG2iiffyH//CfiQFSfyr+w3/4T/0Ym1gA/jMRnvJT8R/+w3/Kh9hU+/gP/+E/UyOk/GSH919a7OmAk35+/gGnI5Iyi4SdmRBxwt/f70RA8PmkrAvPpCeEBp/y8/Pz8w9JKPriImfmPfD29vby8ip53DpH8B/+w3/WmfeSK8V/+A//lZwL6xxxbP9lxAYsHl7zvQ/efvvdd2u2nrovKqNgZxLD1g5r/1rtd9+qXeezbhN2RyQZmYkhG1wb1/3kzbff+d9/PhzkHpFe8GJ7n+A//If/8J+9e4NVjuE//If/rDLt9tbp0P5LO7m8Rd1uSw6cz8xI+cOta4Nv5p5Ku7iIFK8xT9YctjchLT0m8NdBnzT+9WBiqHvf9r9MXHU0MdOI8Ohf473RR1LsrTj/GP7Df/gP/+XfD6z4O/7Df/jPipOfv2aH9l+ku0tdl2WnolMNIzP88JK+NXp5Rl1sPHHnyCc6zg5OzjBSo3fNHdaq6+/Hfdx+GDtl68k4wzCy0j26V2u+Njx/lfZ+x3/4D//hP3v3Bqscw3/4D/9ZZdrtrdPR/dfJdUNIXEZJ/xlRXr+0qtfk2zbftWn55af1WvRY7+fjNsR1jldwMv6zt9F2juE//If/7AyGZQ7hP/yH/ywz7nYW6uj+qzPU7WTUha//rRxSa/zhS3+mL+3s4W2/r129eun8gb3bN57tE+nj9t3IiRv9Y/P859nrwZ67879ZbGfdhsHX//Af/sN/dm8OFjnoyP5r0KDBxxX8UadOnWeeeabcN1m/fr2zXg/u7u74z1k393LW5dD+ywxZ3+G99jN3n81IT3af3vbjH1dHFF9TdszplQM++Gz6gdSs817DWv/osvBgXIZxZs33z9abe6b4i4s8xn/4D//hvyI3BYs9cGT//etf9x04sK7Sf7Vr13Tq1KnOel3gvwkTJjjr5l7Ouhzaf0Z2RuBv3Z97+uEqVR564fWRu5PSs41z7qN+GDhwYcCJHb/UePHBqlWffP6VqTvj0rIMIyczbNuET/731L+qVK32r06bE9KyywwA/+E//If/yrxJOPmTjuy/qlX/ZRjBlf5r4MAu+M+JxwD/eXh4/Kn9tf2pVzvsi/Ef/sN/+M9hb1BXoTH8V64v8d9VuA4r8S3wH/6rxMuvMt8a/+E//FeZE1jZ763Bf6cSwnce3LFkR+6v3wOj/bOyj5z22h6dbudLg5lpPoH7PWIzij+VmeB9bK97TInj5eLPMIIHDuwyefLk7OzsnJycyt4u+ffn+7/4D//Jz5WKivgP/+E/FaNaQU1q8N/hvbN+bPDY8x/V/6xRnU9aDphzItat+/1frg0vjjzDCI49M7P38622ni/+VNimjs0++G6h/4nLAV+x1wwc2GXkyJExMTHJyclZWVlOpkD8h//wXwXdXR29LP7Df/jP0ae0IvtT4r/+QzuMOp4QbITPafJkh9Uhc/L95xfsNW/28O7Dh4/yOHEoI/uPld3rvVPlpc6Tp/icLUy9o1t7fzVykcuI2ZtTcv9Aoe+xNYu2r5o8bvma6KzTiec3rhjeffivU3cFHjEM/9Pu4yeN7j7SpfcG/2MXIDhwYJdu3bodPnw4PDw8NTUV/1Xk9VgJtfEf/quEy84R3hL/4T/85wiTWFk96PJfwvExX773i8fZuRf8lxCydNawxj179BjfvVXdga4nE3b/3r/R+9Ve7eY60zeikP9il3T/ccKxwGWzh37vlfulQc+FTT5p0bbTiKVro1KOes3/otcvvXr16jR2gdu5tBNBu6fOnNJ/7OhvurRwDc376ZOBA7u0bNly3bp1x48fT0hIyM4u+6cKK2snr/B9+fof/sN/Vzg82k/Df/gP/2mfYjP9K/Ff53oP/d+7H79f5/V63RavikhclOe/48dWDx3auad3xCkjflmXd1st8vW1+/1f/3k1u644mBntvnxWu35b9ub576s+k5dFpwalxq3o/sRtz79Tq9Zr/2n0Y6+D54ONoPnff1v304//+9pjrbbH5n4feeDALl999ZWbm9vBgwdjY2OzsrLMBO5o5+I//If/HG0qr1I/+A//WdZ/WdnZ2w+eaTVs7Q/T/rDsr+bDN3433tMxl3/nPffmfQf28N5Zvbp9+cOS7au9vd3PJwdkpC3N85/vgQUDh3474mh8sGFsHvfyl9O8fOz5b/uEl+6p9sR/XnrhyUcffqF+97nhuV//+2b8wg3xGcHJ0XN/fvCD8RtWe3uvPnbaO+nkgo59+7tuXOK5fXCbRxquj7jov3r16s2dO3ffvn347yr9P9NVfBv8h/+u4uXmSG+F//CfZf2XkJLRYrTnh3021+GXQybwj7vuyfdf/p//y/uGbOZF/wWd9R47bFDzNceOZB8d99bXfXaeO57nv5abIwJzcvJ/BOTw0Ke6TDgT6n327N4j28dMGfvNjtBL/ktLWOdS98kBW/ZnZwfm5AQZfpPeGzzRJ+xo3LbOj+A/R/q/qorrBf/hv4q7uhy6Mv7Df5b1X1xS+gX51R20rdkoT2v+qj9oU5MR2x1z7XfcfcF/Rw4tcZnUe0pA0kXSZaavGv5qm7wf8j24Z0r7OvdXuf/+t0du9EzJCk6P957zfZUXPvpywUHfCz+9cWTOBy7bvbIvcDB6x5wloybtWrmqU5dZq7YmZgYb2QFndvT+MLdCjS5jl54zPBY2eeeZ+6s80v37EW9+tyOSr/859P9/iTSH//CfyIWkrwj+w3/4b+Ka4/pGV6hjDX/+L/8reZX0b4EMHNiF7/8KXW6OWAb/4T9HvC6vQk/4D//hP/x3FW41V/AWjvPvv+G/K9g+LafgP/yn5VoV7hP/4T/8h/+EbytC5e655+5Ro3pX+q8PPngL/wltqSOWwX/4zxGvy6vQE/7Df/gP/12FW80VvMXEiRNH53+MGDGiT58+7dq1a9iw4eeff/6p0Mc/n3jt3n+/9u8X3iq7Xvfu3RctWnTw4MG4uDj+/r8r2EpHPgX/4T9Hvj4rsDf8h//wH/6rwFuMUOmMjIyIiAhvb++VK1fOnz9/jtDHC1/88synXT/7dkDZ9dzc3DZt2nTixInExET8J7SljlIG/+E/R7kWr3If+A//4T/8d5VvO1fwdtnZ2YmJiWfOnPH19d23b99eoY+32k5+vfXE1gPml13vwIED/v7+58+fT0tL499/u4Ltc+RT8B/+c+TrswJ7w3/4D//hvwq8xQiVzsnJycjISEpKiouLi5H7+LD7ylo//9Z1qnvZJWNjYxMTE9PS0rKzs/Gf0JY6Shn8h/8c5Vq8yn3gP/yH//DfVb7tXNnb5eTkZOd9ZMl9fDpg8we9N/aeu6/skhfeNyfv48qad9iz+Pff8B/+c9jxrNjG8B/+w3/4r2LvMg5c/fOBW+v02dxn3kEH7rFiW8N/+A//VeyMOWx1/If/8B/+c9gbVEU3hv/wH/7DfxV9n3HQ+vgP/+E//Oegt6eKbwv/4T/8Z1H/Hdu2zX3o4IBfZ1r219KOHU7OdLXs8r1HjdzSp5dllx/w68zVXX46MnmSNRM4Om36sFa9h7XqvbTnCGsmEPDrzA09ux8YO9qyy3f5ps+wVr1ndxli2QS2D+i3Z/hQyy4/4NeZi7r8mBQUVPH/reGg7+Dj42NR/51ZtXLrRx9s+/B9fpEACZAACZAACVgtga2ffXxslIuD6qzi27Ku/0JWrrDatc56SYAESIAESIAELiSw45MPT0ybUvHQctB3sK7/9u/ZvWf9+pTws5b9NWPkyOSwMMsu/+juXZuWLLHs8lPCz7pNnRrh52fNBM6dCm7UbVmjbsumL9hpzQRSws+unT//5L59ll1+857LG3VbNnTKVssm4L5q1YHt2y27/JTws9NGDM9MTHRQnVV8W9b1n7e3t5eXV8Un7LjvwM9/8PMf/PwHP//huHeoCu6Mn//g5z/4+Q+L/vk//If/8B/+w38VrCzHLY//8B/+w3+Oe4eq0M7wH/7Df/ivQm8yjlwc/+E//If/HPkeVYG94T/8h//wXwXeYhy7NP7Df/gP/zn2XarCusN/+A//4b8Ku8E4emH8h//wH/5z9PtUBfWH//Af/sN/FXR7cfyy+A//4T/85/h3qgrpEP/hP/yH/yrk5qKhKP7Df/gP/2m4V1VAj/gP/+E//FcBtxYdJfEf/sN/+E/H3Uq8S/yH//Af/hO/sWgpiP/wH/7Df1ruV8J94j/8h//wn/BtRU85/If/8B/+03PHEu0U/+E//If/RG8qmopd8F+nqX/sPRFlzV+zftu+dONea679wqoHjPk1NjFd01Ur2iv//ptonKqK4T/8h//wn6qblmSzdQdtq9NnM7+snMAXAzbO2xogeVWpqoX/VG2XaLP4D//hP/wnelPRVKzPvINWpg9rr9Nn80f9toxY5qvpqhXtFf+JxqmqGP7Df/gP/6m6aUk2ezw4utfYRRv3h1n21wS37TNXeVl2+Rv3h/3iMi8gPEHyqlJVy+H9d+r3Vk3qvffeh41ajd8XUyTaqJ3jP//kw/fe+/Sbzr8ejs97KnRn387N33vvvTof9nCPLPLikg+8vb29vLxKHrfOEfyH//Af/rPOHa/YSlNSUlxdXYsdtNRDfv6Dn/9w4J//iNk7pm7b3nN3HNy/d2avRnVH74wtmM6onb3f/GWm136fPdvGDmz3w5rTRqLfgs5de4xctvPgkfVDG7zUdUPZAsR/+A//4T/8V3BPtdon+A//4T/H9V/UzjFv9Zx5JCLJMDJDDyzo+U6/XdH596hzmzs902t16PmYMP/Z4zt8u8w//vDiFgNHrTx8PscwMpK2/FS99fqI/Bfb+x3/4T/8h//wn727oyWO4T/8h/8c13+R7i6dXDeExGUYRmb44SV9a/TyjLp0Y0rd0fsf91a7/4nH/zdsU3y6EefjNsR1jldwsmEYWeke3as1Xxt+6cUlP8N/+A//4T/8V/LeaJEj+A//4T+H9l+LiauDYtLz/LdswNuD/rjw5/wMw0gMnT38s896LT+4adjHn381fX1EuI9bz8muHqcTL/ivx/3tNhd8sdDe/Qz/4T/8h//wn727oyWO4T/8h/8c13+Jh2Z/3nroVv+Y7Ky0oxvGdmyyMCj/vpTiNebJzvNDkzOMtBgv16Gtmi06ErCu88/9Z28/nZZtxPnNaPjqhOP5L7b7O/7Df/gP/+E/u7dHKxzEf/gP/zmu/4zkwN+6tm/UsUe/vv07Ne08ZMuJZCPxlPuqzZsPBB1e2bZZ4859+w3s80unFk26Tjsckxq+bUyf1t/+2L3fwJ/qt/phuW/uVwJL/8B/+A//4T/8V/o90smfwX/4D/85sP8MIznYa8Ec16lTZyxY4pP3Z/+SQ/Zu27PnWGxaymmPRa7Tp06dOnX+sjUBeT8YnBrhu2bpnKlTp06bvrPMn/3Iva/hP/yH//Af/nNy5ZW+PPyH//CfQ/uv9OE1+wz+w3/4D//hP7N3UrXn4z/8h//wn9obmLnG8R/+w3/4z9xdRPHZ+A//4T/8p/gWZqZ1/If/8B/+M3MPUX0u/sN/+A//qb6JXXnz+A//4T/8d+V3EOVn4j/8h//wn/Lb2JW2j//wH/7Df1d6/1B/Hv7Df/gP/6m/kV3ZAvAf/sN/+O/K7h5OcBb+w3/4D/85wa3sSpaA//Af/sN/V3LvcIpz8B/+w3/4zyluZn9+EfgP/+E//Pfn7xxOcgb+w3/4D/85ye3szy4D/+E//If//ux9w2lej//wH/7Df05zQ/tzC8F/+A//4b8/d9dwolfjP/yH//CfE93S/sxS8B/+w3/478/cM5zqtfgP/+E//OHg6y4AACAASURBVOdUN7XLXwz+w3/4D/9d/h3DyV6J//Af/sN/TnZbu9zl4D/8h//w3+XeL5zudfgP/+E//Od0N7bLWxD+w3/4D/9d3t3CCV+F//Af/sN/Tnhru5wl4T/8h//w3+XcK5zyNfgP/+E//OeUN7fyF4X/8B/+w3/l3ymc9BX4D//hP/znpLe38paF//Af/sN/5d0nnPZ5/If/8B/+c9obXNkLs7L/UtKzVnmebOOy4ccZ3pb91XTIuu+n7Lbm8jtN/aNOn811+mzGf2XfJZz4WfyH//Af/nPiW1xZS7Oy/4LOJTZz8fgwTwAXHMD/WjMB/FfWPcKpn8N/+A//4T+nvsmVvjgr++9EaPwF7tQbvP1rFw9r/qo3YGPjETusufavXTwaD9/RdtyOPcfPlT4iTv7M6tWrg4KCnHyRpS8P/+E//If/Sr9DOPUz+K9On81LPAOdepPLWtz8+fMt++f/DMOIiIhYunRpWQE5+3P4z9XV1dk3uaz14T/8h//KmhAnfg7/4T/858QDXu7S8B/+O3ToULnXiRO/AP/hPye+vMtaGv7Df/ivrAlx9ufwH/7Df84+5WWtz8fHB/+VFZATP4f/8B/+c+IBL3dp+A//4b9yx8SJX4D/nHhzy1ka/sN/+K+cIXHqp/Ef/sN/Tj3i5SwO/5UTkBM/jf/wH/5z4gEvd2n4D//hv3LHxIlfgP+ceHPLWRr+w3/4r5whceqn8R/+w39OPeLlLA7/lROQEz+N//Af/nPiAS93afgP/+G/csfEiV+A/5x4c8tZGv7Df/ivnCFx6qfxH/7Df0494uUsDv+VE5ATP43/8B/+c+IBL3dp+A//4b9yx8SJX4D/nHhzy1ka/sN/+K+cIXHqp/Ef/sN/Tj3i5SwO/5UTkBM/jf/wH/5z4gEvd2n4D//hv3LHxIlfgP+ceHPLWRr+w3/4r5whceqn8R/+w39OPeLlLA7/lROQEz+N//Af/nPiAS93afgP/+G/csfEiV+A/5x4c8tZGv7Df/ivnCFx6qfxH/7Df0494uUsDv+VE5ATP43/8B/+c+IBL3dp+A//4b9yx8SJX4D/nHhzy1ka/sN/+K+cIXHqp/Ef/sN/Tj3i5SwO/5UTkBM/jf/wH/5z4gEvd2n4D//hv3LHxIlf4PD+izq2eMHsadNmzF/sGZJSaCOijy9dOGfaxY8F67YHJBiGEXd6w0q3adOmzZjx+6mkQi+296m3t7eXl5e9Z6xyDP/hP/xnlWm3t078h//wn73JsMoxx/ZfctCmQT2bfN+rT+8+7Rs367nqZHLBvkQcmDJ+5IABAwb06tasQb26g3bEpoZ7TR/Ztn23X/oM+PHLz1rO9k0seLG9T/Af/sN/+M/evcEqx/Af/sN/Vpl2e+t0aP8lHpr9ReuhW/xjsrPSjm4Y0ab+hBKmy0k5f2Bu/69ddsWlBKzv/HP/2dtPp2UbcX7T67/SyyvO3orzj+E//If/8F/+/cCKv+M//If/rDj5+Wt2aP9Furs0n7gqKCbdMDLDDy/pW6OXZ1R+4xd+z84I3OLyxU9T/JOMOB+3npNcPU7nftUvK92je7Xma8OLvrjoI/yH//Af/it6V7DWI/yH//CftWa+6God3X+dXDeExGWU5r+stFNz2r403CMxy8j13xDXOV7Bud8ixn9Fd9n+I/yH//Cf/dmwxlH8h//wnzVm3f4qHdp/UZ5j3ur169GIJMPIDD2wfFCdGX45RZYRv7n3488NO5iVezD+8OIWA0et8o3MMYyMpK3dHx1yoOiLi5xpGHz9D//hP/xX7LZgqYf4D//hP0uNfLHFOrT/jJi9Iz5p2XvuDp+D+2f1bt5g3M5YIzPpfFhERGx6lmFkJvzW6ckuGyMuLinBb27HH7sPX7rb5+jG4V+/2mN9ZLG1Fn2I//Af/sN/Re8K1nqE//Af/rPWzBddrWP7zzBivGc2bfBxrVofft1m6enc1qP3zR05ffq6kATDiPIc8tVsv0LriT+6slvbL2vVqvV+nUnHCh23+yn+w3/4D//ZvTlY5CD+w3/4zyLDbneZju4/u02LHMR/+A//4T+Rm4nSIvgP/+E/pcMr0jb+E4lRZRH8h//wn8rRFWoa/+E//Cc0TCrL4D+V2ybSNP7Df/hPZJSUFsF/+A//KR1ekbbxn0iMKovgP/yH/1SOrlDT+A//4T+hYVJZBv+p3DaRpvEf/sN/IqOktAj+w3/4T+nwirSN/0RiVFkE/+E//KdydIWaxn/4D/8JDZPKMvhP5baJNI3/8B/+ExklpUXwH/7Df0qHV6Rt/CcSo8oi+A//4T+VoyvUNP7Df/hPaJhUlsF/KrdNpGn8h//wn8goKS2C//Af/lM6vCJt4z+RGFUWwX/4D/+pHF2hpvEf/sN/QsOksgz+U7ltIk3jP/yH/0RGSWkR/If/8J/S4RVpG/+JxKiyCP7Df/hP5egKNY3/8B/+ExomlWXwn8ptE2ka/+E//CcySkqL4D/8h/+UDq9I2/hPJEaVRfAf/sN/KkdXqGn8h//wn9AwqSyD/1Rum0jT+A//4T+RUVJaBP/hP/yndHhF2sZ/IjGqLIL/8B/+Uzm6Qk3jP/yH/4SGSWUZ/Kdy20Saxn/4D/+JjJLSIvgP/+E/pcMr0jb+E4lRZRH8h//wn8rRFWoa/+E//Cc0TCrL4D+V2ybSNP7Df/hPZJSUFsF/+A//KR1ekbbxn0iMKovgP/yH/1SOrlDT+A//4T+hYVJZBv+p3DaRpvEf/sN/IqOktAj+w3/4T+nwirSN/0RiVFkE/+E//KdydIWaxn/4D/8JDZPKMvhP5baJNI3/8B/+ExklpUXwH/7Df0qHV6Rt/CcSo8oi+A//4T+VoyvUNP7Df/hPaJhUlsF/KrdNpGn8h//wn8goKS2C//Af/lM6vCJt4z+RGFUWwX/4D/+pHF2hpvEf/sN/QsOksgz+U7ltIk3jP/yH/0RGSWkR/If/8J/S4RVpG/+JxKiyCP7Df/hP5egKNY3/8B/+ExomlWXwn8ptE2ka/+E//CcySkqL4D/8h/+UDq9I2/hPJEaVRfAf/sN/KkdXqGn8h//wn9AwqSyD/1Rum0jT+A//4T+RUVJaBP/hP/yndHhF2sZ/IjGqLIL/8B/+Uzm6Qk3jP/yH/4SGSWUZ/Kdy20Saxn/4D/+JjJLSIvgP/+E/pcMr0jb+E4lRZRH8h//wn8rRFWoa/+E//Cc0TCrL4D+V2ybSNP7Df/hPZJSUFsF/+A//KR1ekbbxn0iMKovgP/yH/1SOrlDT+A//4T+hYVJZBv+p3DaRpvEf/sN/IqOktAj+w3/4T+nwirSN/0RiVFkE/+E//KdydIWaxn/4D/8JDZPKMo7tv+yM5N1TXn7uySpVHvjPyx1WBWfkFAo5M8VvWpNHq1atWvWV939YddLIyUw9tLTB+6/8q0rVav/8ZM6JtOxCLy75qbe3t5eXV8nj1jmC//Af/rPOvJdcKf7Df/iv5FxY54hD+y8zZH3H99rN3HU2Iy3JfXqbDzsvD83M35rMhA3dX2+33D//sZF13mt4q84uCw/GZRhnVnf8T70ZpwteXPCiQp/gP/yH//BfoVuC5T7Ff/gP/1lu7Ast2KH9F+nuUmeo28moFMPIDD+8pG+NXp5R+b0Hr6j/6NcDF/+2du3arZ5eYYlGnI9b25ETN/jHGoaRle7RvVrzteH5L7b3O/7Df/gP/9m7N1jlGP7Df/jPKtNub52O7r9OrhtC4jLs+O/QjKdfff/Llq2/bdW0aYMG/d0Czvi4DXGd4xWcjP/sbbSdY/gP/+E/O4NhmUP4D//hP8uMu52FOrr/6o1adio6Nc9/vw161+VASv4aTi35sPm0o4npRkbcvgVjOzRbdMDH7YexU7aejMvzn2evB39yT8x/sb3f+fof/sN/+M/evcEqx/Af/sN/Vpl2e+t0aP+lnlzeol63pQfOZ2akeLt1b9x2eWjBGlK8+rz189rTyVkp5zdO79mu54YzoTv6tP9l0qpjiZlGhOeAmh+4ni54sb1P8B/+w3/4z969wSrH8B/+w39WmXZ763Ro/xkZMX9M6lzj3Vrv1Hyvznt9lgREZRjR++aMmDZt3ZmExKDZfV9+u/Y7b9f5/Mtha4JiMjITjiwe9uVHtWu8U+vNZ9tOOxKRbm/BBcfwH/7Df/iv4IZgwU/wH/7DfxYc/IIlO7b/DCMz8VzACb9jx/wCTkWn5XadmRQZdu5cbHqWYaRG+/sdP3bM/3Rw7AXqZaXEBJ8+cezYsePHIwq+UVyw1GKf4D/8h//wX7HbgqUe4j/8h/8sNfLFFuvo/ivWruBD/If/8B/+E7ylqCuF//Af/lM3toIN4z/BMJWVwn/4D/8pG1rRdvEf/sN/oiOlrBj+U7Zhgu3iP/yH/wQHSl0p/If/8J+6sRVsGP8JhqmsFP7Df/hP2dCKtov/8B/+Ex0pZcXwn7INE2wX/+E//Cc4UOpK4T/8h//Uja1gw/hPMExlpfAf/sN/yoZWtF38h//wn+hIKSuG/5RtmGC7+A//4T/BgVJXCv/hP/ynbmwFG8Z/gmEqK4X/8B/+Uza0ou3iP/yH/0RHSlkx/KdswwTbxX/4D/8JDpS6UvgP/+E/dWMr2DD+EwxTWSn8h//wn7KhFW0X/+E//Cc6UsqK4T9lGybYLv7Df/hPcKDUlcJ/+A//qRtbwYbxn2CYykrhP/yH/5QNrWi7+A//4T/RkVJWDP8p2zDBdvEf/sN/ggOlrhT+w3/4T93YCjaM/wTDVFYK/+E//KdsaEXbxX/4D/+JjpSyYvhP2YYJtov/8B/+ExwodaXwH/7Df+rGVrBh/CcYprJS+A//4T9lQyvaLv7Df/hPdKSUFcN/yjZMsF38h//wn+BAqSuF//Af/lM3toIN4z/BMJWVwn/4D/8pG1rRdvEf/sN/oiOlrBj+U7Zhgu3iP/yH/wQHSl0p/If/8J+6sRVsGP8JhqmsFP7Df/hP2dCKtov/8B/+Ex0pZcXwn7INE2wX/+E//Cc4UOpK4T/8h//Uja1gw/hPMExlpfAf/sN/yoZWtF38h//wn+hIKSuG/5RtmGC7+A//4T/BgVJXCv/hP/ynbmwFG8Z/gmEqK4X/8B/+Uza0ou3iP/yH/0RHSlkx/KdswwTbxX/4D/8JDpS6UvgP/+E/dWMr2DD+EwxTWSn8h//wn7KhFW0X/+E//Cc6UsqK4T9lGybYLv7Df/hPcKDUlcJ/+A//qRtbwYbxn2CYykrhP/yH/5QNrWi7+A//4T/RkVJWDP8p2zDBdvEf/sN/ggOlrhT+w3/4T93YCjaM/wTDVFYK/+E//KdsaEXbxX/4D/+JjpSyYvhP2YYJtov/8B/+ExwodaXwH/7Df+rGVrBh/CcYprJS+A//4T9lQyvaLv7Df/hPdKSUFcN/yjZMsF38h//wn+BAqSuF//Af/lM3toIN4z/BMJWVwn/4D/8pG1rRdvEf/sN/oiOlrBj+U7Zhgu3iP/yH/wQHSl0p/If/8J+6sRVsGP8JhqmsFP7Df/hP2dCKtov/8B/+Ex0pZcXwn7INE2wX/+E//Cc4UOpK4T/8h//Uja1gw/hPMExlpfAf/sN/yoZWtF38h//wn+hIKSvm8P4L3tqlY5vGjZt26PLrobjC4cZ5/9qlRdPGjRs3/r7nkD1heU+Fe7v069y4ceOvmw7zii78Yjufe3t7e3l52XnCMofwH/7Df5YZdzsLxX/4D//ZGQzLHHJs/8X5TGvW4efJK7Zs2jCuS+Ovp3jHX9qYiOVt6/act37Hjh179h06n2wYSQG/9ezZdeCs1Vt2uPX88q1+28oWIP7Df/gP/126o1jvM/yH//Cf9eb+0ood2n8xeya88/OUA6GJOTkZwX/M6vreoD9iC1qPWN625ezjiQWPE44sb91n+LL94Vk5Rlr02g6Ptdt8vuBJO5+s2xPQbNimVmN3WvZXvf7rWo2x6PKbunjU6bMZ/+E/O7cGyxzCf/gP/1lm3O0s1KH9F+nu0nHG+pC4DMPIDD+8pG+NXp5RBWs4v7bLaw89UKVKlSff/mTy/pSMWB+3wTNm7wlONgwjK92je7Xma8MLXmznk5V7gi8IgP+1bAIf99uyfFeQnYvDGofmz5+P/6yx1fZXif/wH/6zPxvWOOro/vtm8prg2PQ8/y3r//aAPUX+CGDuFmXGhy4e2bqui3ugj1ufKTN3BuZ+RTAr3aPH/d9uvIRFO5v5u9epli5bO0z2suyvrwastezaO0z2+maM+y8zdh4LKXFJ2blYnPMQ/lu6dKlzbu3lrQr/4T/8d3mz4pyvcmj/xR9w/bidi8epuOzsdP+tU376av7pEruQlRD224RvG0z0OndiTYdfBs3fGZyebSQEzm/x0tijJV5c+AB//s/Kf/7PMAx/f/+NGzcWviSs9jn+w39BQdb9+ndKSgr+w39Wu+0XXq9D+89IPLGg43eteoycMH5CjzYde646mmQkn9m7bffuY7FhxxbPnzVlypRxY0a079p26r5wIyVk/dCe33Xq6zJhyqCWLVvO2Vfoh0UKL/ni5/gP/+E/vv9r59ZgmUN8/Q//4T/LjLudhTq2/wwjMWDbxLHDBw0aNnG617nc/hNPua/esuVgVNDBaRNHDxo0aNDwsbO3BeT+oT/DSAnZu2DGmEGDBg0ZujHUzmKLHMJ/+A//4b8iNwWLPcB/+A//WWzoiyzX0f1XpFnRB/gP/+E//Cd6U1FWDP/hP/ynbGhF28V/onGqKob/8B/+UzWyws3iP/yH/4SHSlU5/Kdqu0SbxX/4D/+JjpSyYvgP/+E/ZUMr2i7+E41TVTH8h//wn6qRFW4W/+E//Cc8VKrK4T9V2yXaLP7Df/hPdKSUFcN/+A//KRta0Xbxn2icqorhP/yH/1SNrHCz+A//4T/hoVJVDv+p2i7RZvEf/sN/oiOlrBj+w3/4T9nQiraL/0TjVFUM/+E//KdqZIWbxX/4D/8JD5WqcvhP1XaJNov/8B/+Ex0pZcXwH/7Df8qGVrRd/Ccap6pi+A//4T9VIyvcLP7Df/hPeKhUlcN/qrZLtFn8h//wn+hIKSuG//Af/lM2tKLt4j/ROFUVw3/4D/+pGlnhZvEf/sN/wkOlqhz+U7Vdos3iP/yH/0RHSlkx/If/8J+yoRVtF/+JxqmqGP7Df/hP1cgKN4v/8B/+Ex4qVeXwn6rtEm0W/+E//Cc6UsqK4T/8h/+UDa1ou/hPNE5VxfAf/sN/qkZWuFn8h//wn/BQqSqH/1Rtl2iz+A//4T/RkVJWDP/hP/ynbGhF28V/onGqKob/8B/+UzWyws3iP/yH/4SHSlU5/Kdqu0SbxX/4D/+JjpSyYvgP/+E/ZUMr2i7+E41TVTH8h//wn6qRFW4W/+E//Cc8VKrK4T9V2yXaLP7Df/hPdKSUFcN/+A//KRta0Xbxn2icqorhP/yH/1SNrHCz+A//4T/hoVJVDv+p2i7RZvEf/sN/oiOlrBj+w3/4T9nQiraL/0TjVFUM/+E//KdqZIWbxX/4D/8JD5WqcvhP1XaJNov/8B/+Ex0pZcXwH/7Df8qGVrRd/Ccap6pi+A//4T9VIyvcLP7Df/hPeKhUlcN/qrZLtFn8h//wn+hIKSuG//Af/lM2tKLt4j/ROFUVw3/4D/+pGlnhZvEf/sN/wkOlqhz+U7Vdos3iP/yH/0RHSlkx/If/8J+yoRVtF/+JxqmqGP7Df/hP1cgKN4v/8B/+Ex4qVeXwn6rtEm0W/+E//Cc6UsqK4T/8h/+UDa1ou/hPNE5VxfAf/sN/qkZWuFn8h//wn/BQqSqH/1Rtl2iz+A//4T/RkVJWDP/hP/ynbGhF28V/onGqKob/8B/+UzWyws3iP/yH/4SHSlU5/Kdqu0SbxX/4D/+JjpSyYvgP/+E/ZUMr2i7+E41TVTH8h//wn6qRFW4W/+E//Cc8VKrK4T9V2yXaLP7Df/hPdKSUFcN/+A//KRta0Xbxn2icqorhP/yH/1SNrHCz+A//4T/hoVJVzuH9F3d607o1y5evWLfpQERa8WhzshKOu6/Z6nk64cIziWG7d2xYvnz5byt2hqQUf3Gxx97e3l5eXsUOWuoh/sN/+M9SI19ssfgP/+G/YkNhqYeO7b+U0F1j+tZr2aF9u/bN6rYYtCkotejmRB+e3bHJhw3emXrcMIz0yEPzxrVu3a5N++9bfPBpx6Unkou+uNgj/If/8B/+K3ZbsNRD/If/8J+lRr7YYh3af0lH5jdoNmDd0eiszNRDqwe1bDz1WGHTxftObNhu8KqFw/L8lxq46ecf+7huOpmSZUQfGv/pGwP2XvyqYLElX3yI//Af/sN/9u8O1jiK//Af/rPGrNtfpUP7L9Ldpcm4lYExaYaRGX54Sd8avTyjLi3j1NKGPw7aedxvzQX/xfm4dZs4fcepXPRlpXt0r9Z8bfilF5f8DP/hP/yH/0reGaxzBP/hP/xnnXkvuVJH918n1w0hcRl2/Bew5otB449EJJ8v5L8hrnO8gnO/Qoj/Su50ySP4D//hv5JzYZ0j+A//4T/rzHvJlTq6/94eMM8/MiXPf6uGvTflaNbFJRyfW/ehh+57sHr1B6rdd8dNj37aboanu1vLoeN+Px6d5z/P3tX7781/ccllG4bB1//wH/7Df3ZvDhY5iP/wH/6zyLDbXaZD+8+I2tWvdsuhKw+FnglcNqTpx0O2RhvZ6UnxiYkpmZmZGenp6ekpob4rBr89yTczKzvOd1qbTn0nbPILPec9pel/OqyMsLvi/IP4D//hP/yXfz+w4u/4D//hPytOfv6aHdt/hhG1c/zHtV57/vn/flR/7oncpiP3TO0zZsxvQfEXVpAdE+Qxq+2ywLxHcT6L2jZ45/nnn3/p5eGH81dY2u/4D//hP/xX2v3BCsfxH/7Df1aY9NLW6Oj+K61v88fxH/7Df/jP/J1EbwX8h//wn975Nd85/jOfodYK+A//4T+t0yvRN/7Df/hPYpK01sB/WnfOfN/4D//hP/NzpLcC/sN/+E/v/JrvHP+Zz1BrBfyH//Cf1umV6Bv/4T/8JzFJWmvgP607Z75v/If/8J/5OdJbAf/hP/ynd37Nd47/zGeotQL+w3/4T+v0SvSN//Af/pOYJK018J/WnTPfN/7Df/jP/BzprYD/8B/+0zu/5jvHf+Yz1FoB/+E//Kd1eiX6xn/4D/9JTJLWGvhP686Z7xv/4T/8Z36O9FbAf/gP/+mdX/Od4z/zGWqtgP/wH/7TOr0SfeM//If/JCZJaw38p3XnzPeN//Af/jM/R3or4D/8h//0zq/5zvGf+Qy1VsB/+A//aZ1eib7xH/7DfxKTpLUG/tO6c+b7xn/4D/+ZnyO9FfAf/sN/eufXfOf4z3yGWivgP/yH/7ROr0Tf+A//4T+JSdJaA/9p3TnzfeM//If/zM+R3gr4D//hP73za75z/Gc+Q60V8B/+w39ap1eib/yH//CfxCRprYH/tO6c+b7xH/7Df+bnSG8F/If/8J/e+TXfOf4zn6HWCvgP/+E/rdMr0Tf+w3/4T2KStNbAf1p3znzf+A//4T/zc6S3Av7Df/hP7/ya7xz/mc9QawX8h//wn9bplegb/+E//CcxSVpr4D+tO2e+b/yH//Cf+TnSWwH/4T/8p3d+zXeO/8xnqLUC/sN/+E/r9Er0jf/wH/6TmCStNfCf1p0z3zf+w3/4z/wc6a2A//Af/tM7v+Y7x3/mM9RaAf/hP/yndXol+sZ/+A//SUyS1hr4T+vOme8b/+E//Gd+jvRWwH/4D//pnV/zneM/8xlqrYD/8B/+0zq9En3jP/yH/yQmSWsN/Kd158z3jf/wH/4zP0d6K+A//If/9M6v+c7xn/kMtVbAf/gP/2mdXom+8R/+w38Sk6S1Bv7TunPm+8Z/+A//mZ8jvRXwH/7Df3rn13zn+M98hlor4D/8h/+0Tq9E3/gP/+E/iUnSWgP/ad05833jP/yH/8zPkd4K+A//4T+982u+c/xnPkOtFfAf/sN/WqdXom/8h//wn8Qkaa2B/7TunPm+8R/+w3/m50hvBfyH//Cf3vk13zn+M5+h1gr4D//hP63TK9E3/sN/+E9ikrTWwH9ad8583/gP/+E/83OktwL+w3/4T+/8mu8c/5nPUGsF/If/8J/W6ZXoG//hP/wnMUlaa+A/rTtnvm/8h//wn/k50lsB/+E//Kd3fs13jv/MZ6i1Av7Df/hP6/RK9I3/8B/+k5gkrTUc3n9H59V4+emqVau/WKP7jsgiKUes6/7Eo9WrPvb8Z0O3RV945tS6Fp+9XrVq1QerN1pztsiLSz7w9vb28vIqedw6R/Af/sN/1pn3kivFf/gP/5WcC+sccWj/ZYdv/rHmN1M8wtJTE7dObF676+qI7IKtOTZt6u7U1PTY4M2DG709fnd0dvS+US06DZuzLybdCFz6zb8bzjmTVfBiO5/gP/yH//CfnVuDZQ7hP/yH/ywz7nYW6tD+i3R3qTV4wYnIFMPIDD+8pG+NXp5Rl9aQHn16r/fuzSvGDmo86UCsEefj9s3w8ev9YgzDyEr36F6t+drwSy8u+Rn+w3/4D/+VvDNY5wj+w3/4zzrzXnKlju6/Tq4bQuIy7Pov2mva143qN2r6lcuiLXtDEuJ83Ia4zvEKTsZ/JbfZ7hH8h//wn93RsMhB/If/8J9Fht3uMh3df1+N+e10dFqe/5YPfGf4vqRiq8hJjTw04ee6jVz3n/Nx6zJ+2raA+Av+6/lA5+25n5b6wdf/8B/+w3+l3iAs8AT+w3/4zwKDXuoSHdp/KX6LmzTstfJwZFZm6v5l/Vq0XhpSsJCzfyzfF5qWlZMRGzR32JeNZuyPC97a4/ueU3/3S84yIr1HfPDutICCF9v7BP/hP/yH/+zdG6xyDP/hP/xnlWm3t06H9p+Rdt59ZKf3P69fv37DLz/p8evhbGAiSAAAIABJREFUs2lG7KGlk+fP33Y2ZP+kXi0aN/rqy68aN+g2bFNwvJERu3/O4Eb16n1R/6tP32jj4hWcam/BBcfwH/7Df/iv4IZgwU/wH/7DfxYc/IIlO7b/DCM9JnCv1y4Pj53e+0PzvvebHhPsf/p0eEpmRtTJfbt2enjs8vIJjMnIW1BGfJjvAS8PDw/PnQEJBUss5RP8h//wH/4r5fZgicP4D//hP0uMeimLdHT/ldK2wGH8h//wH/4TuJWoLYH/8B/+Uzu+Ao3jP4EQlZbAf/gP/ykdXpG28R/+w38io6S0CP5TunECbeM//If/BAZJbQn8h//wn9rxFWgc/wmEqLQE/sN/+E/p8Iq0jf/wH/4TGSWlRfCf0o0TaBv/4T/8JzBIakvgP/yH/9SOr0Dj+E8gRKUl8B/+w39Kh1ekbfyH//CfyCgpLYL/lG6cQNv4D//hP4FBUlsC/+E//Kd2fAUax38CISotgf/wH/5TOrwibeM//If/REZJaRH8p3TjBNrGf/gP/wkMktoS+A//4T+14yvQOP4TCFFpCfyH//Cf0uEVaRv/4T/8JzJKSovgP6UbJ9A2/sN/+E9gkNSWwH/4D/+pHV+BxvGfQIhKS+A//If/lA6vSNv4D//hP5FRUloE/yndOIG28R/+w38Cg6S2BP7Df/hP7fgKNI7/BEJUWgL/4T/8p3R4RdrGf/gP/4mMktIi+E/pxgm0jf/wH/4TGCS1JfAf/sN/asdXoHH8JxCi0hL4D//hP6XDK9I2/sN/+E9klJQWwX9KN06gbfyH//CfwCCpLYH/8B/+Uzu+Ao3jP4EQlZbAf/gP/ykdXpG28R/+w38io6S0CP5TunECbeM//If/BAZJbQn8h//wn9rxFWgc/wmEqLQE/sN/+E/p8Iq0jf/wH/4TGSWlRfCf0o0TaBv/4T/8JzBIakvgP/yH/9SOr0Dj+E8gRKUl8B/+w39Kh1ekbfyH//CfyCgpLYL/lG6cQNv4D//hP4FBUlsC/+E//Kd2fAUax38CISotgf/wH/5TOrwibeM//If/REZJaRH8p3TjBNrGf/gP/wkMktoS+A//4T+14yvQOP4TCFFpCfyH//Cf0uEVaRv/4T/8JzJKSovgP6UbJ9A2/sN/+E9gkNSWwH/4D/+pHV+BxvGfQIhKS+A//If/lA6vSNv4D//hP5FRUloE/yndOIG28R/+w38Cg6S2BP7Df/hP7fgKNI7/BEJUWgL/4T/8p3R4RdrGf/gP/4mMktIi+E/pxgm0jf/wH/4TGCS1JfAf/sN/asdXoHH8JxCi0hL4D//hP6XDK9I2/sN/+E9klJQWwX9KN06gbfyH//CfwCCpLYH/8B/+Uzu+Ao3jP4EQlZbAf/gP/ykdXpG28R/+w38io6S0CP5TunECbeM//If/BAZJbQn8h//wn9rxFWgc/wmEqLQE/sN/+E/p8Iq0jf/wH/4TGSWlRfCf0o0TaBv/4T/8JzBIakvgP/yH/9SOr0Dj+E8gRKUl8B/+w39Kh1ekbfyH//CfyCgpLeLw/gvdNbhv906dOvcZvPh4QpGQ4w4t7tqlc6efe41ZcyzpwjPnDk0fM6BTp06dO08+EFvkxSUfeHt7e3l5lTxunSP4D//hP+vMe8mV4j/8h/9KzoV1jji2/+KPzm/fuePwWYvcFg7u8HWbWQcLCTBocZ8xU90Wz505tGOblkuPxhvJgesG9+vca/ysRcsmd6pXZ8SusgWI//Af/sN/1rnXl1wp/sN/+K/kXFjniEP7L9Z7ynudxnsFxedkp5/ynNr5o+H74gq2JvlsYGRqVnZSxOHp3V5zcY9MPL6ybc8hi/4Izcwxks8u++apH7ZHFbzYzif4D//hP/xn59ZgmUP4D//hP8uMu52FOrT/It1dvpv2+5nYdMPIDD+8pG+NXp7FSZcVeWLVgJo/bgnPjvNxGzBt1u6g3G8FZ6V7dK/WfG24nQUXHMJ/+A//4b+CG4IFP8F/+A//WXDwC5asyH9L+73Vd1dMQee5n6TFhvza66Wh284bhhHn49a/kP963N96fe7hUj/wH/7Df/iv1BuEBZ7Af/gP/1lg0EtdokP7L9Z76vudxuV///fX7vXmBBRaSOJZn+VTv28w7+iFYxe//+t18fu/3z07+kihF5f8FP/hP/yH/0reGaxzBP/hP/xnnXkvuVKH9p+RcGxmq2/bD3F1W7BgSMfvOrkdTDBSI456Hzp0OiE+Ykn7x+74osfSpUuXrtqw2/98enLQyr6/fN9t1K9uSyd93/zLSfz8R8ntLnIE/+E//FdkJCz2AP/hP/xnsaEvslzH9p9hJBxbM7BP1x9++Hng8O1huZ3H+61fsGrVnnMRx5cM6fvTD3kfPYfO2h6QbBhJgZ6TR/T64YcffuyyPKjIMu084Ot/+A//4T87twbLHMJ/+A//WWbc7SzU0f1np2WhQ/gP/+E//Cd0O1FZBv/hP/yncnSFmsZ/QkEqLIP/8B/+Uzi4Yi3jP/yH/8TGSWEh/Kdw04Raxn/4D/8JDZPKMvgP/+E/laMr1DT+EwpSYRn8h//wn8LBFWsZ/+E//Cc2TgoL4T+FmybUMv7Df/hPaJhUlsF/+A//qRxdoabxn1CQCsvgP/yH/xQOrljL+A//4T+xcVJYCP8p3DShlvEf/sN/QsOksgz+w3/4T+XoCjWN/4SCVFgG/+E//KdwcMVaxn/4D/+JjZPCQvhP4aYJtYz/8B/+ExomlWXwH/7DfypHV6hp/CcUpMIy+A//4T+FgyvWMv7Df/hPbJwUFsJ/CjdNqGX8h//wn9AwqSyD//Af/lM5ukJN4z+hIBWWwX/4D/8pHFyxlvEf/sN/YuOksBD+U7hpQi3jP/yH/4SGSWUZ/If/8J/K0RVqGv8JBamwDP7Df/hP4eCKtYz/8B/+ExsnhYXwn8JNE2oZ/+E//Cc0TCrL4D/8h/9Ujq5Q0/hPKEiFZfAf/sN/CgdXrGX8h//wn9g4KSyE/xRumlDL+A//4T+hYVJZBv/hP/yncnSFmsZ/QkEqLIP/8B/+Uzi4Yi3jP/yH/8TGSWEh/Kdw04Raxn/4D/8JDZPKMvgP/+E/laMr1DT+EwpSYRn8h//wn8LBFWsZ/+E//Cc2TgoL4T+FmybUMv7Df/hPaJhUlsF/+A//qRxdoabxn1CQCsvgP/yH/xQOrljL+A//4T+xcVJYCP8p3DShlvEf/sN/QsOksgz+w3/4T+XoCjWN/4SCVFgG/+E//KdwcMVaxn/4D/+JjZPCQvhP4aYJtYz/8B/+ExomlWXwH/7DfypHV6hp/CcUpMIy+A//4T+FgyvWMv7Df/hPbJwUFsJ/CjdNqGX8h//wn9AwqSyD//Af/lM5ukJN4z+hIBWWwX/4D/8pHFyxlvEf/sN/YuOksBD+U7hpQi3jP/yH/4SGSWUZ/If/8J/K0RVqGv8JBamwDP7Df/hP4eCKtYz/8B/+ExsnhYXwn8JNE2oZ/+E//Cc0TCrL4D/8h/9Ujq5Q0/hPKEiFZfAf/sN/CgdXrGX8h//wn9g4KSyE/xRumlDL+A//4T+hYVJZBv/hP/yncnSFmsZ/QkEqLIP/8B/+Uzi4Yi3jP/yH/8TGSWEh/Kdw04Raxn/4D/8JDZPKMvgP/+E/laMr1DT+EwpSYRn8h//wn8LBFWsZ/+E//Cc2TgoL4T+FmybUMv7Df/hPaJhUlsF/+A//qRxdoaYd3n/p8WeCA0+dOhV0JjI5q/iiU6IDg4LPXzqekRQeFnwq9+NsYmbxFxd77O3t7eXlVeygpR7iP/yH/yw18sUWi//wH/4rNhSWeujY/suIO710xFvv1vrfGzXefqv1jAMxGZc2Jylk3x9LBr367EOt14XnHc1MCts8s9EXH772vzdfferDoZ7n0y+92M5n+A//4T/8Z+fWYJlD+A//4T/LjLudhTq0/9ICfmv5xc+L95/LzEj5Y0GX+m3mnU4rWEPw7107zdu5pke+/zLCPPq16zZxxdHETCPcve//3h9zNLXgxXY+wX/4D//hPzu3Bsscwn/4D/9ZZtztLNSh/Rfp7vKFy9JT0amGkRl+eEnfGr08o4qsIT1pW4H/4nzcOo2ZsuVknGEYWeke3as1X3vh64JFzrj0AP/hP/yH/y7dEaz3Gf7Df/jPenN/acWO7r9OrhtC4jIu039DXOd4BSfjv0vbW+Zn+A//4b8yR8TJn8R/+A//OfmQl7k8R/ffh8MWBURd+PrfiiG1xh0q+mf6in397zuXiRv9Y/P859nrwR67+f5vmXuP//Af/itzRJz8SfyH//Cfkw95mctzaP9lnlnX/v0Ov+4Oz0hP9nBt92nn1RFFF1PYf1nn9gxt/eMoN5+4DCNk7Q/P1Z17puiLiz3i+7/4D//hv2K3BUs9xH/4D/9ZauSLLdah/Wdkpwcs6frMUw9XqfLQ8/8d5pmQlm2ccx/1w8CBCwNiI9f9UuORB+7+2/W33vXkW22mecVlZ4RsHvvRG0/+q0rVqvd1WBebkl1srUUf4j/8h//wX9G7grUe4T/8h/+sNfNFV+vY/ivaq+wj/If/8B/+k72r6KqG//Af/tM1s7Ld4j/ZPDVVw3/4D/9pmljpXvEf/sN/0lOlqR7+07Rbsr3iP/yH/2RnSlc1/If/8J+umZXtFv/J5qmpGv7Df/hP08RK94r/8B/+k54qTfXwn6bdku0V/+E//Cc7U7qq4T/8h/90zaxst/hPNk9N1fAf/sN/miZWulf8h//wn/RUaaqH/zTtlmyv+A//4T/ZmdJVDf/hP/yna2Zlu8V/snlqqob/8B/+0zSx0r3iP/yH/6SnSlM9/Kdpt2R7xX/4D//JzpSuavgP/+E/XTMr2y3+k81TUzX8h//wn6aJle4V/+E//Cc9VZrq4T9NuyXbK/7Df/hPdqZ0VcN/+A//6ZpZ2W7xn2yemqrhP/yH/zRNrHSv+A//4T/pqdJUD/9p2i3ZXvEf/sN/sjOlqxr+w3/4T9fMynaL/2Tz1FQN/+E//KdpYqV7xX/4D/9JT5WmevhP027J9or/8B/+k50pXdXwH/7Df7pmVrZb/Cebp6Zq+A//4T9NEyvdK/7Df/hPeqo01cN/mnZLtlf8h//wn+xM6aqG//Af/tM1s7Ld4j/ZPDVVw3/4D/9pmljpXvEf/sN/0lOlqR7+07Rbsr3iP/yH/2RnSlc1/If/8J+umZXtFv/J5qmpGv7Df/hP08RK94r/8B/+k54qTfXwn6bdku0V/+E//Cc7U7qq4T/8h/90zaxst/hPNk9N1fAf/sN/miZWulf8h//wn/RUaaqH/zTtlmyv+A//4T/ZmdJVDf/hP/yna2Zlu8V/snlqqob/8B/+0zSx0r3iP/yH/6SnSlM9/Kdpt2R7xX/4D//JzpSuavgP/+E/XTMr2y3+k81TUzX8h//wn6aJle4V/+E//Cc9VZrq4T9NuyXbK/7Df/hPdqZ0VcN/+A//6ZpZ2W7xn2yemqrhP/yH/zRNrHSv+A//4T/pqdJUD/9p2i3ZXvEf/sN/sjOlqxr+w3/4T9fMynaL/2Tz1FQN/+E//KdpYqV7xX/4D/9JT5WmevhP027J9or/8B/+k50pXdXwH/7Df7pmVrZb/Cebp6Zq+A//4T9NEyvdK/7Df/hPeqo01cN/mnZLtlf8h//wn+xM6aqG//Af/tM1s7Ld4j/ZPDVVw3/4D/9pmljpXvEf/sN/0lOlqR7+07Rbsr3iP/yH/2RnSlc1/If/8J+umZXtFv/J5qmpGv7Df/hP08RK94r/8B/+k54qTfXwn6bdku0V/+E//Cc7U7qq4T/8h/90zaxst/hPNk9N1fAf/sN/miZWulf8h//wn/RUaaqH/zTtlmyv+A//4T/ZmdJVDf/hP/yna2Zlu3V4//kv/ez9Gs8++2Ltzwbtiiq69iNz//fay88+++rnzcbtj817KmhLp2YfPfvssy+8+N3GiKIvLvHI29vby8urxGELHcB/+A//WWjgSywV/+E//FdiLCx0wKH9lxO5s//73wxf7RsWGrR8aOM6A7dE5Vzcm5yILT++3HSCZ/DZU4dnDmj59fidMXGHp3/bud+kLSfCIvdNbfJU29/C819sdz/xH/7Df/jP7s3BIgfxH/7DfxYZdrvLdGj/Rbq7vD1g3onIFMPIDD+8pG+NXp75XwKM2NDrmX6/xaVkGkbyyS2zB9Z12bLdreXQcb8fjzYMIyvdo3u15mvD7S754kFvb+/t27fHWPhjwoQJUVFRlg1g//79q1evtuzyY2JiZs+eHRQUZNkETpw4sXDhQssuPyYmZtmyZb6+vpZN4OzZs9OmTbPs8mNiYjZu3Lhnzx4rJzBu3DgrL3/37t0eHh5lOanEc7YSRyrqQKS7SyfXDSFxGXb919J1V2J6dmH/DXGd4xWcfJn+8/f3X7hw4Xw+SIAESIAESIAESMBiCSxcuNDX1/dPAe6q+q/JuBWBMWl5/ls+sObQvYkXW43Y0OvjsZsT0rLy/Dd/WIPJHrvcuk2YvuNUwgX/9Xzg+61xf2pdvJgESIAESIAESIAESMB+AlfPf0lHFzRo2n/d0eiszNRDq4e1ab44OL+lxANTa9Ub6BWWmp0W7TFvaJcua08FburauY/rppMpWUa0z/jPa0w+kf9ificBEiABEiABEiABEjCTwNXzn5EatqF/x8+aftvuuw4t6nedsCc41Yg//vu8FSt2nYsMXtmlRZ1m7dq1ad+qWd9ZB8LS0iN3Tx3Q7OsWrdt1aP7+N323nMz9TjAfJEACJEACJEACJEACphO4iv4zjNSIIxvXrV6xYtXGrSfjc1tPPXd8v69vUGK6kRp2cM3qlStWrN22MzD3m76GkR59aue2dStWrFi56lDuj4HwQQIkQAIkQAIkQAIkIJHAVfWfRMPUIAESIAESIAESIAESMJUA/jMVHyeTAAmQAAmQAAmQgLoE8J+6LaNhEiABEiABEiABEjCVAP4zFR8nkwAJkAAJkAAJkIC6BPCfui2jYRIgARIgARIgARIwlQD+MxUfJ5MACZAACZAACZCAugTwn7oto2ESIAESIAESIAESMJUA/jMVHyeTAAmQAAmQAAmQgLoE8J+6LaNhEiABEiABEiABEjCVAP4zFZ/Jk8PX/fLEo9Wrlfj4YeGR5EyTtUs5Pd53xndfPFOt2hdjPZIzskt5EYevXgIR63s89W8710Cn+YcSMyqmjfgjv7av92y1ap+P3p6YzjVQMSH/maoRG3r/54mHStwGqn0/90BC+p8pdDmvTYvwnNblzUJv1uRX38s5j9dUeAI52Xsnf1loZy59Oto7q6LePcqzT+1XH3ngwR9Wn62ot6CuoyaA/ypzZ0KXf3vbTddfd8sd91W59HHfnbddf91frrvhxp7rwuNThcY+Jzs9Oe7wmhFfvnjNNbbcjzcGbEri//src/MvvnfYb9/dfssN195c9Bq467brr7v22uuu7742PE7uGshIjvNdO+qrly9eA6/3W5+Qhv8q/yIIW9HhzttKXgN/u/66a6+55i/d1ghdAzk5sYF7+n58zXU33vSPu/954Y5z3x23/OUv191XvdeOpAr6r43Kj1dNBznZO4fXsP3lur/+7a6L25O3SffdcfM111xz7yPPjveIErtp52SmxEfvmdnileq5d4Nr/nJt00UhaoKiUaEE8J9QkFdUJtd/t9368DfLIgqdHvPH9K8+eeOhO6776z/uaznVMyql0HNX9mlOdnLYwVm9Gjxku+Ef91WtesftN+K/K0uyAs7K9d/fbnmw1ZLwQsVjvF0bffa/h++87sa/39N8snukxDWQEu4zu2/Dh2033H5v1ap35l4D+K9Q5JX5aa7//n5zteaLi14DM5t8/ubDd15/w213fT1J4BrISj+3uO2z19102wsNflp7/MK/sm5E7hj55tP32m6799X+W+Ir6HsOlRmtqve+4L/bH/lwyNbC/+T9uc39Xn7x6X/darvj36/0W34o3vyXhLPSIv23DP767ftsN91bvfq/bv7rtfhP1ZUi1Sz+k0rySurY9V9eoeitI+o8aLPd+dgrw7eeN/sf5hnJh1yb3XLHfa/UbjNs1pwxjT54EP9dyXZVyDl2/XfhGtgx6uPqNtsdD784dPN5s/f8zNQjs5rf/I97X6n9zZCZc8Y1+ag6/quQ/bySonb9l1coxnPsZ9Vttn889NzgTWavgejjU2vabqj2XMP5R+MLd3l2S7cHbTc+8Fzz5QFphY/z+dVOoBT/GYaRlug3s+1z/7LZqr/d1O1gnFmoxwbM61HnH9X+XaNOpxmblg149t+34r+rvdkO8X74rzK3oXT/GVkZfi6vVbHdfE+N9hOOxplrMis9bM/8/qOmHjxnGEbg4pb4z1yeomeX7j8jJ+vk6Ner2G6+642244+YvAayM8K9FvRzmXzhGlj6Df4T3UVzxUr3n2HknB77RlXbTXe+1masb6ypt/Ee+aLt+rtfbrQwqGiZzPR9P1Wx3fzQC13WBhd9hkdXN4HS/WcYWVF+azv9527bHY82HbUqJNlcYymRe9dMHTVn9ancu4rv2Bfxn7k81Z6N/ypz68rwn5GdeXRhm2o224P/q7fI1/73/+JOe8wf93PpHzM9AqJKfO0Q/1Xmjpd87zL8ZxjZxxd9e7/N9uDrny84bP+WHxe4c8H40i+Bn13dT0SWvAbwX8mNqMQjZfnPME4s/e5+m+3+Vz+Z51PKNRC0e+GEMq6BGTv8z6cbcYtb/t329yo1RuwsdjfJzoycUtdmu+fJepO8iz1ViZlY8a3L8p+RlRCyatBn99hszzXpu/OM/e8HnPNZPG5IGVfComPJJW4G+M+Kl9rFNeO/ytz8svxnZJ/3nfGRzXbTf94ftMX+n8wN8Rhd/8W8n+aw/z91xmwLKHFDx3+VueMl37tM/+VEHZ35sc120//V6r/5TMlzDcMI9Rz/1cv2tz/v6Psum0+UUEMg/rMbZmUdLNt/Mf6zPrXZ/vpUzd4b7X99LnTXpMavlHENvDdig1+S4TvosdtuvKf6N8sCiy0zJyt9fc/Hbf947JNh22OKPcfDq5lAmf4zsuMOuPV8zWa7rVaH5Yej7PZ1fHGLFx8o40potiaqxM0A/9mN0hoH8V9l7nOZ/suJC93U6Qmb7Yl3u649ZbfLtLjQYwc8Sv/wDY1NLfHjnfjPbpaVdrBM/xkJZ7d0ftJme/ztn9YE2G0xPT7s+MHSLwEP35DYlJLXAP6zG2ZlHSzbf4nntv/0lM32WI1Oq07a7TA9/qxf2ddATEqW4d3t9ltvue/hX9YV/iGT3Ho5WRnuQ9+0XXd/7W+WFvvWsN2342BFJVC2/4zUUzsm1nvAZnuzzfz9hX9i8FI7yef9D/xRxt3AP9rO3/nF938vBWi1z/BfZe542f6LP+ve9eVL/ovaNaHOm89Ur/7QS69PPHLlXeO/K8+uIs4s23+JEZ6/vHLJf9G7J3381jPVq1d/+oX/zrryi4Cv/1XETl55zbL9lxS5u8d/i/jv/NbBr7/wRMff7H9JuJQ+yvOfreo7jRbY/4+MUipyWDiBcvyXFrRrWqMnCvkv4vfmjz9WvXr1Gl+0Wn/6invBf1ccnfoT8V9lbmGZ/suOOjGv/jW2vzxZq/u604ZxesmY3/44Hp6Slrbo5/vfGL+vxBd1LnMh+O8yg7pKLyvTfzkxpxY0uMb2lydqdv39lBF7YPzQ+TuOnU1JT98zpu4zr449fIUXAf67Spt7mW9Ttv/ighc1vMb2l3+/9dOaU4YR9Fu7Bq0HTRtX975G8/7U/+fv63HPrTff+/BPa8KKdZWTlbF90Ku53/8duo3v/xYL56o+LNt/OQmHf+v/9jW2a9/6duGBc0bm3gH/fqz5PL/02DO/j2z/frNxB65w8/DfVd1kh3oz/FeZ21GW/3KyAtd1f8p23QNvNFp4qNDf15CTuLb7e2/22RJjGBmJ504f31/6x8lzdv56X/xXmTte8r3L9l/whh5P2669/7UG83wKXQOGEek5+rNnu7pHGxmJ50/7lX4J7D8ZYe8a4Pu/JTeiEo+U7b/QTb3+z3ZttVe+nHOg4BoIX9ysWoH/MpLOB5Z9DcSnZhvn5nz1N9s/qr09YW+xvz0kOzNx1tc2252PfzZ6Z8EbVGIa1n3rMv2Xkxy+ZWzz6rYbnmnU3zM4JcN73MOPdfdMzTSM9DN/zBz2c+v1p7JSY4KO+5ZxNwiKyyz5n4z4z7pXHP6rzL0vw3/ZmRELmj5lu/6+N1tMO5qY12TCGY+tG1auHFb/pU9dvXP/W4+f/6jMzRN67zL8l5N93q3Z07br732j6ZQjF/++3gvvmrJvXMM3m+T+aS1+/kNoHyqzTJn+i17c4mnb9Xe/1niS76VroIj/Lu/nPwzPAY/Y/nrPf9suL/YFwMx4785P2W6q/kLntfZ/zqwyo7HUe5flv+z44F0D6jxku+nJpkPXhaQa4b93faDe2BPpWYaRGbZ/fr8fGy08GMvPf1jqejG/WPxnPsMrr1C6/5KOru32us126/3P/rQ4/+c3w/YM7/9Lu3btWg2Z6Lb8cLRhxJ7c6jqsXekfk7b62/m7P/j7/658wyrgzNL9l+S3vscbNtstVf/zg5t/UqG3Dt83rkX9L2Yfyv3Lu2IDts8cXvol0G7iluPnSvxdEXz/t1CaDvBp6f5LPrGp9xs2281Vnvp+gV+ha6CI/2JPuc8aUcY1MGHz0Yh0wwhd2+mftlse/e+PG8JSCy86xrP/I7YbH36p5cbiPxlS+FV8XvEJlO6/zLSwDaMb/sdmu+vFuhPdQ9ONwv7Ljji0ZEj3XP9F7J83rFcZV8Ic36QSNwN+/rfiN9Zh3wH/VebW2Pdf+L4JLt0/evym62+5/cOfpxyJLNZhjt/izu++1N+r0P8bFHtFmQ/5/m+Z8Vz1J+37L2L/pNHdP3ny5utv/vsHP03yLXQWN8suAAAK90lEQVQNhO2e0u7b+v1XHrnwReEr6hf/XVFsFXaSff9FHJg8puenT91y3U23vdd5QuFrwDCK+O8y+0qP+KPzC7ab7qr6eY8Z+0Mv/sVQoTsndP788etvubdurx2FrrLLLMnLRBMozX9ntnf9sfnrVWy3/uvRNqNXBuV9kz7Jc+hDL/ffm3bx+78DO7dY5VeE9ZfdGd//veyonO6F+K8ytzTXfzffeNujNb5sWujj49fuuO2vf7n2uoZDlu0Lyf/7+5JOrtrqczY6xcjJ8Z3d5n8vD913+cOek3n+0Io+F9/hizcfqXKrzXbPs+82avx106bf/DJoid+l7ytVZhrWfO9c/916462PvFnsGrjzb3+95i/XNhhc6Bowko6udmnRuuXglfv/NP5zMiN9V/bNvwZqPFo19xp45p2GeddAtwGL8/89WGtuQiWvOtd/f7vxloeLXgOfvH7X32+y2a6pP2jp3oL7wMVOr8R/OVnpB5e1edlmu/nu+1//sMGFa+HDF++44YZr//n1iEu3mkoOw8Jvf8F/N9xW9blaF7fnwiZ98Nw119j+/s+Hvp+62e98/r/RF72pVfU3JvumGalRu2YNbN1xwuHLvylkxB7dMLPrxbvBxy/d+bfrrrnm4Tfr5h3oOGLm9uKXm4X3xLmXjv8qc39z/XfTdSX+vs7Hmg6Zt2HL9gv/nXexv4yQ5cNafVbrzZo1a771SsMxG0Muf9iN7LTT6/u9UOJt8g7c+uQb3d35D//Kuwpy/XfL9SU259Emg+au37KtyDUQuuOHL5696c4HXnijRs2aNWvWa9Z3w2X/BGh2etDGAaX8ZeG3PP5qN774U3mXgJHrv9tuKHENPNJ4wOzfN28NLPJP/4VtHvhT/ZpvPH3fjfc++epHDVvO2Xf5/ypcTnpy+P4l09t+UL3Qez3VYdqa3UWus0pMwtpvfcF/hfYm/9Nneizc4rlnb3iRm35i0OrB9V9+p2aNWp/X67nA+/zlf0HASD27dUzrx/KrF/39vtqtp/vyc0DWuBLxX2Xuc2ZixMkTJ/yLfwRHJWXkFO8rKzk69PTJ3JcGnApPKvYjfMVfXOxxTkZSVHDxd7nw+GTgmciUrGKv5+HVSyAz8dzJk3avgfTi10BG4tmQwEvbeCowLD7/iwHl95uTkcw1UH5MlfKKzMRzAXaugaDIxPQSP66ZEX825FT+RXDydFBU8p+b3pzMtJiIoPwC/v7+Z2LTSrxJpaTAmxpGSvSZQltT8OmZ+JL/bJthGJkJobn/93EyKCTqz93DczKTYyIK3UoK3sj//9u5158orjCO4/9K2/RF37Q2TUxqrUkTa0tqqxYrXqCxSCkgWiBQi41FRAVLAREsjVZRUQFLEES0FEFUBFHUIldBgcUFlsvKnb3N7pxmFzVrgtHNIGSY72Ze7O7M2XOez3Ne/DK70Nraru8bYUdoZDOS/zTSaMpEAAEEEEAAAQSeCJD/2AoIIIAAAggggIC2BMh/2uo31SKAAAIIIIAAAuQ/9gACCCCAAAIIIKAtAfKftvpNtQgggAACCCCAAPmPPYAAAggggAACCGhLgPynrX5TLQIIIIAAAgggQP5jDyCAAAIIIIAAAtoSIP9pq99UiwACCCCAAAIIkP/YAwgggAACCCCAgLYEyH/a6jfVIoAAAggggAAC5D/2AAIIIIAAAgggoC0B8p+2+k21CCCAAAIIIIAA+Y89gAACCCCAAAIIaEuA/KetflMtAggggAACCCBA/mMPIIDA/BSwW8ZK01cerDI+La8zf/OxK21NeRGLF0w9vIPTKrufnhUO6fauxUv9c1uevSOEaM72+2TRggULl/gkXnnsfuI1P39YFLkz5/KwyeGaZ6K19GJuzF8Zu37LyL5ttLzmufl4BBDQgAD5TwNNpkQEVCIgy7JNclgVH3aH7KxYMt3L3fZZzL+Dzley437eqr25db33szZ8k9lgNBp7aot/X+e9Nuliy6Trgs5c/682hQcsy2h2jRayo/G0/0fbDzTqeo29utvFaamVgy+ElGVZkhxWq/JDliQhy/b6o0u+T68ZmHAufVSXfyo5Kr9pfHh0bMLqkB2SWZIki8lkMlus9qnVvnBlnEAAAQSmESD/TYPCWwggMCcCt+4P/pBW9UXMJSWHT8KVP4tbxidtQtj7mwt3e0WW9diFY6Bs37e7T5T1m3pO+m7Ie3LXb+BacshPUekNA7KQ2g/7bsq+V3MozOvQXauz/IHrv67YnX3rkevFSzwmu/VNSYlXvVdeXu6l5LjqvbI+LnbsQZsQbYc/9Uu50itkW++9vxNDN/6j05+Pyjid89+IuBv/Zlh8yrq333pj4bKvs+rMUzcJX7JETiOAAAJuAuQ/NwyeIoDAnArsL2haEVuuJPxNjfVNvGoYMgkhzMa2M8lrky52mQ2VcZsSTlW0m4V7/hO68r2xqftquy2WlswNm/MGrCM3i5IDUq6NSkI8KFwdtv9sS7/9FUwGqquqNvopSX7Pxl7zWW24VCqEaMvxWbuvzGwdu5OTEBxc0C3c898HUSW90nBndkpE8MGqkVdYIZcggAAC7gLkP3cNniOAwFwKNOqGDpxrTspvVHgUVHdNmiVnJdJYY/nR+PgjFeczw1Mzb+gnxHP5z9RwZm/qHydah4er47w/Dow/efJoyo5gv2WRJV1W8agk0D8xr77X9UEvYTH39+nO5DYnJSo/2rOOTz7qcs43fP3n9VtKH+py9gT9UtYtnst/MZU2u7AO3jh3JIH895LmcBoBBKYRIP9Ng8JbCCAwXwTsxubixOhV64P3HM+/YbQJ9/w3YahOj9yccPj6QE9pwOfrAyOioqOjoyNCfAOC4s63WyZbMwODgo6UD1nswm4xttdUdU7OLsvYtZ0fLo1N37Nlf73zd4Du9//If7PbCmZDYN4JkP/mXUspCAEE3ASkodZTu9csWh5ecMvgupPXc2zNe17fhYaGhvqHbYlIO17bOdRVHP5lTLZu3PVLP2vf5WMp23ec1ZnN+trsbVt9Q0KCQ7f+uC0lq0Lv/E55Nh/jNxPefef9rRl1ronJf7Npz1wIzHMB8t88bzDlIaB1Abupv+1OdU19//jUF7lm3c0LhVOP8urmPuctvdGumjsdBtuTv6S1jeg7Wut0Y87LLYaGigtFhYVFFyoaDHPwf1dM+uoLJQ0Gs6uJJkNjh757xCZGWktbjA5ZOKxDBl1bx2PnbU0eCCCAgCcC5D9PtLgWAQQQQAABBBBQvwD5T/09pAIEEEAAAQQQQMATAfKfJ1pciwACCCCAAAIIqF+A/Kf+HlIBAggggAACCCDgiQD5zxMtrkUAAQQQQAABBNQvQP5Tfw+pAAEEEEAAAQQQ8ESA/OeJFtcigAACCCCAAALqF5iB/CfLstkyB/8YS/34VIAAAggggAACCMyBwAzkP0mSuvTdc7B2pkQAAQQQQAABBBDwXGAG8p/VJjW0PRgdG/d8dkYggAACCCCAAAIIzLbADOS/2V4y8yGAAAIIIIAAAggoECD/KcBjKAIIIIAAAgggoEIB8p8Km8aSEUAAAQQQQAABBQLkPwV4DEUAAQQQQAABBFQoQP5TYdNYMgIIIIAAAgggoECA/KcAj6EIIIAAAggggIAKBch/KmwaS0YAAQQQQAABBBQIkP8U4DEUAQQQQAABBBBQoQD5T4VNY8kIIIAAAggggIACAfKfAjyGIoAAAggggAACKhQg/6mwaSwZAQQQQAABBBBQIPA/dBjtWUUsxowAAAAASUVORK5CYII=;clipPath=inset(0% 0% 6.31% 0.67%);" vertex="1" parent="1">
          <mxGeometry x="80" y="-30" width="816.55" height="528.8394295302013" as="geometry" />
        </mxCell>
        <mxCell id="HKypCNGywmoDcbvKpc3D-4" value="" style="endArrow=none;html=1;rounded=0;strokeWidth=4;strokeColor=#00CC00;" edge="1" parent="1">
          <mxGeometry width="50" height="50" relative="1" as="geometry">
            <mxPoint x="304" y="580" as="sourcePoint" />
            <mxPoint x="304" y="-20" as="targetPoint" />
          </mxGeometry>
        </mxCell>
        <mxCell id="HKypCNGywmoDcbvKpc3D-5" value="" style="endArrow=none;html=1;rounded=0;strokeWidth=4;strokeColor=#00CC00;" edge="1" parent="1">
          <mxGeometry width="50" height="50" relative="1" as="geometry">
            <mxPoint x="470" y="580" as="sourcePoint" />
            <mxPoint x="470" y="-20" as="targetPoint" />
          </mxGeometry>
        </mxCell>
        <mxCell id="HKypCNGywmoDcbvKpc3D-6" value="" style="endArrow=none;html=1;rounded=0;strokeWidth=4;strokeColor=#00CC00;" edge="1" parent="1">
          <mxGeometry width="50" height="50" relative="1" as="geometry">
            <mxPoint x="634" y="580" as="sourcePoint" />
            <mxPoint x="634" y="-20" as="targetPoint" />
          </mxGeometry>
        </mxCell>
        <mxCell id="HKypCNGywmoDcbvKpc3D-7" value="&lt;font style=&quot;color: rgb(204, 0, 204); font-size: 20px;&quot;&gt;So sánh 1&lt;/font&gt;" style="text;strokeColor=none;align=center;fillColor=none;html=1;verticalAlign=middle;whiteSpace=wrap;rounded=0;" vertex="1" parent="1">
          <mxGeometry x="160" y="510" width="110" height="30" as="geometry" />
        </mxCell>
        <mxCell id="HKypCNGywmoDcbvKpc3D-8" value="&lt;font style=&quot;color: rgb(204, 0, 204); font-size: 20px;&quot;&gt;So sánh 2&lt;/font&gt;" style="text;strokeColor=none;align=center;fillColor=none;html=1;verticalAlign=middle;whiteSpace=wrap;rounded=0;" vertex="1" parent="1">
          <mxGeometry x="330" y="510" width="110" height="30" as="geometry" />
        </mxCell>
        <mxCell id="HKypCNGywmoDcbvKpc3D-9" value="&lt;font style=&quot;color: rgb(204, 0, 204); font-size: 20px;&quot;&gt;So sánh 3&lt;/font&gt;" style="text;strokeColor=none;align=center;fillColor=none;html=1;verticalAlign=middle;whiteSpace=wrap;rounded=0;" vertex="1" parent="1">
          <mxGeometry x="495" y="510" width="110" height="30" as="geometry" />
        </mxCell>
        <mxCell id="HKypCNGywmoDcbvKpc3D-10" value="&lt;font style=&quot;color: rgb(204, 0, 204); font-size: 20px;&quot;&gt;So sánh 4&lt;/font&gt;" style="text;strokeColor=none;align=center;fillColor=none;html=1;verticalAlign=middle;whiteSpace=wrap;rounded=0;" vertex="1" parent="1">
          <mxGeometry x="660" y="510" width="110" height="30" as="geometry" />
        </mxCell>
        <mxCell id="HKypCNGywmoDcbvKpc3D-11" value="" style="shape=image;verticalLabelPosition=bottom;labelBackgroundColor=default;verticalAlign=top;aspect=fixed;imageAspect=0;image=data:image/png,iVBORw0KGgoAAAANSUhEUgAAA1UAAAJJCAIAAADN/orFAAAgAElEQVR4AezdB3hUddbH8XFta9t17buAim1t79p1LSuKgopdEKRIF5EiogjSew+9Q5BOqFKltySUGFoglAQCSUhCAum9575PAgkpkwS5J2TO3G8eniVzZ+6Z8//977n7MSFgM/ggARIgARIgARIgARKwUgI2Ky2WtZIACZAACZAACZAACRj4j4uABEiABEiABEiABKyVAP6z1n6zWhIgARIgARIgARLAf1wDJEACJEACJEACJGCtBPCftfab1ZIACZAACZAACZAA/uMaIAESIAESIAESIAFrJYD/rLXfrJYESIAESIAESIAE8B/XAAmQAAmQAAmQAAlYKwH8Z639ZrUkQAIkQAIkQAIkgP+4BkiABEiABEiABEjAWgngP2vtN6slARIgARIgARIgAfzHNUACJEACJEACJEAC1koA/1lrv1ktCZAACZAACZAACeA/rgESIAESIAESIAESsFYC+M9a+81qSYAESIAESIAESAD/cQ2QAAmQAAmQAAmQgLUSwH/W2m9WSwIkQAIkQAIkQAL4j2uABEiABEiABEiABKyVAP6z1n6zWhIgARIgARIgARLAf1wDJEACJEACJEACJGCtBLT4LyctPvTgtpUrN+0+Hp6QVcoeJYTs3bZh5cqDodk5pbyCwyRAAiRAAiRAAiRg+QS0+C875uTmbrXvst353+9n7IrKtLtvcTsGffro7bYn+2/LBIB2E+IgCZAACZAACZAACRiGFv8ZmUlnVg39qrrt9hrtJh86l2Fn76J39/roxdtszwzbeTbbztMcIgESIAESIAESIAESyE1Ajf8MIyNwx5SGj9v+/lobtwPhJb4CmHJqTf+aj//N9mpv74hE9pYESIAESIAESIAESKC0BBT5z0g/s7P/18/Ybr6n+fiN4clFV5R80u2nTx+8wVZz0PpzSXz5r2g4PCIBEiABEiABEiCBQglo8p+RFbZ+cIunbLZbvhy6L6TIF/kS/dZ2/PCx62xvj9hyIoUf/ii0wXxKAiRAAiRAAiRAAsUScDD/5WSnJcdFxcQlpWUWKC4jOSY6JiY5PdswckJ2jKr3wnW2a+tM2BWUVvCKnMTDy3vXevC6v37ab2dgXLEV8pAESIAESIAESIAESKBwAo7lv8zE8FWD6txx/zNNx24MT837Nm5G3PJ2d9/28CvDPSJz+w736tPs9Zuus9UZuT0m9SIAs+P8F3b7tMqNz3w/fVdkWuHVlf15VtL5IL8jPj4nI1L5eeGyo+JZEiABEiABEiABJ0rAsfxnGJnRJzf0+qDaIy81me0Zlm6kR3gMq3lH9dpDPGIuhp50eEHnVx+40fbWYN+olLxj2THH1v1Up9otLzaf5RWafvl7kxK4sGez99+t8d7PC4NSS/w8yeXX4ZUkQAIkQAIkQAIkoCoBR/OfYWTEHl46pFb1Z9/5ed7ew+t7fPzAY2/32pevP8Mwko4taf76QzfYXh67P+8rglkJvqsG1frnra+2Hr3v7J/46p8RuLFVkz4TdgRcUKSqXaNZEiABEiABEiABErjyBBzPf4aRHu03r/fH1Z975aPaL9399Hsj3c8UWV/Kidlt3vznX20vDN9jGEZmXNCyvh/ddfvzbSduL/hrAdMTT2wZtXDt2oW9e09a6X4q0Ug+sXH6sAG9e/fuP3rirnDDSIs88fukjs++9u6nrTv1+G1/agY/MlwkYx6QAAmQAAmQAAk4cQKO6D/DyIj2ntPwjfttNtsjrWedSSr2tz2n+S3s+FSVm22P9w8wsmNPb+tR+447X64/bWdYwTdxEyNWf3fr/33SsP/QX1fuPHT2lNfE1j9/P2bS1JnTp/f9rkO333xj4kK9FvX73wcNWvcdNcPzRHoW/nPii5ylkQAJkAAJkAAJFEnAMf0XfeDXnjXuvs1ms93+UOMlfkX+qhfDMNJPLW/6dLUbbNUm+aYEbBxW47aqtVrN8E0s4J+RGLHi+6pPDVoRlvu3BCb6z/rum05Tt51PycrJTj+xfeL3n7kciDdyv//b1WXOvpBiuiwSDw9IgARIgARIgARIwOkScET/Rfou7fz+7W837TPbpf0j/7y7aq9NxWPPTNo24MU7brE9OWjr7wPe+euDr7dbeKQw4xIjVnR57IVZvnnnxewd+cVbj1V56N+PP/HEE088+tBjr73VyzMK/xUPlcckQAIkQAIkQAIWScDR/JeTHeU36+cPb3r8o0FrjyZmhC3v+Mztt/99iHtaVtENydo/rvpdt15zw0033XDdozUarDxZ5Bu4RfwXu3/0l70mrdwXHh+fkPeRlJyWlYP/igbKIxIgARIgARIgAcsk4Fj+y86KO7C069s3P9Kw5/JTSXmbcGTu8w/97e4HuqyLTi26KUdHP323zWazXVe1ZoslwUWfK+I/I9771/YdB03w8PY5evTo0eP+gecSczXJ93+LhsYjEiABEiABEiABiyTgWP5LiwtZNrh2ox8GbPK/9Gf+Ds2pX/vzr35cfbLYlhxd0Kh27dq1v/pm4JagYk+lxOya3rL9xsCCw/Herj80+CT35bU/a/Tz7H3xhmFE7BvtumzzichLf2yw4OV8QgIkQAIkQAIkQALOm4Bj+c95c2ZlJEACJEACJEACJOAoCeA/R9kJ+iABEiABEiABEiCBq5MA/rs6OfMuJEACJEACJEACJOAoCeA/R9kJ+iABEiABEiABEiCBq5MA/rs6OfMuJEACJEACJEACJOAoCeA/R9kJ+iABEiABEiABEiCBq5MA/rs6OfMuJEACJEACJEACJOAoCeA/R9kJ+iABEiABEiABEiCBq5MA/rs6OfMuJEACJEACJEACJOAoCVxt/4XtmTp6zDK/S/+6R34QZ71GjRw+ZMjIaXO2ByfnHYz2WzJn8pAhQ4YOczuWkP8yficBEiABEiABEiABEjCXwNX0X4Tn2KFTpnb6+J76y8OKdp1w1K19xxb9xo0fNfzHNt/1X3MyOSVkx9ghHX8aNGL8pAEtvmgweX/uv9jGBwmQAAmQAAmQAAmQgOkErqb/EoN27TgasrXnPxsW81/sntGvtxh3NDI9OyNu7zKXLq1d9x5Y2/GXgfM9g9OzjYTTc79+ruvOGNNrpQAJkAAJkAAJkAAJkIBhXE3/Xcj7j97/Ku6/iA296k/ekZCWbRjJJ7fMHljXZct2tz5TZu4MzP0+cVa6R/dqzdeGs10kQAIkQAIkQAIkQAICCTiK/1rM2JmYXuC/UVu2uw2eMccr708C5vmvxe8RZa02KCgoMDCwrFc4+3MeHh45OTnOvspS13fu3Lnjx4+X+rQFnvD29k5JSbHAQu0vMT4+/uDBg/afs8ZRX1/f6Ohoa6zVziozMjJ2795t5wnLHAoICAgLK/Ynqyyz+LyFuru7W2vBRVcbGhoaEBBQ9Fg5jxzCf5HbBj37w6zQ+Iyc7MQjv88Z9s3Sw0eWteo7fNn+8OwcIy3m985PjjxU5kK8vb29vLzKfImTPzlp0qTs7GwnX2Tpy/P399+4cWPpzzv/M/Pnz4+Jse4fkoiIiFi6dKnzb3PpK1y9enVQUFDpzzv5MykpKa6urk6+yDKX5+7ufuhQ2f8/Web5+p+cMGGC/kVc+Qp8fHw8PDz+1PlX038Z0YE+e3ZOa3bXuwNXeR0KjMkw0mOC/E+fDk8598eQ9xp3n7tp27pVw7t2+GmRT0LSyUU//9yl/8w1Wz0W9WpWe8i2sv/DFv/hP/yH//7Uvc/JXoz/8B/+c7Kh/lPLcXD/Jfi49f2uecPcj5btByw5lGjEHlo2ZcGCbWcTjRjvmS2bN2nY8Jseg7dc+BJ2ov/Gwb9827BhwyZfzz5ZXgz4D//hP/xX3n3CmZ/Hf/gP/znzhJe3Ngf3X3ntm3ge/+E//If/TNxC1J+K//Af/lM/xiYWgP9MhKf8VPyH//Cf8iE21T7+w3/4z9QIKT8Z/ynfQBPt4z/8h/9MDJD6U/Ef/sN/6sfYxALwn4nwlJ+K//Af/lM+xKbax3/4D/+ZGiHlJ+M/5Rtoon38h//wn4kBUn8q/sN/+E/9GJtYAP4zEZ7yU/Ef/sN/yofYVPv4D//hP1MjpPxk/Kd8A020j//wH/4zMUDqT8V/+A//qR9jEwvAfybCU34q/sN/+E/5EJtqH//hP/xnaoSUn4z/lG+gifbxH/7DfyYGSP2p+A//4T/1Y2xiAfjPRHjKT8V/+A//KR9iU+3jP/yH/0yNkPKT8Z/yDTTRPv7Df/jPxACpPxX/4T/8p36MTSwA/5kIT/mp+A//4T/lQ2yqffyH//CfqRFSfjL+U76BJtrHf/gP/5kYIPWn4j/8h//Uj7GJBeA/E+EpPxX/4T/8p3yITbWP//Af/jM1QspPxn/KN9BE+/gP/+E/EwOk/lT8h//wn/oxNrEA/GciPOWn4j/8h/+UD7Gp9vEf/sN/pkZI+cn4T/kGmmgf/+E//GdigNSfiv/wH/5TP8YmFoD/TISn/FT8h//wn/IhNtU+/sN/+M/UCCk/Gf8p30AT7eM//If/TAyQ+lPxH/7Df+rH2MQC8J+J8JSfiv/wH/5TPsSm2sd/+A//mRoh5SfjP+UbaKJ9/If/8J+JAVJ/Kv7Df/hP/RibWAD+MxGe8lPxH/7Df8qH2FT7+A//4T9TI6T8ZPynfANNtI//8B/+MzFA6k/Ff/gP/6kfYxMLwH8mwlN+Kv7Df/hP+RCbah//4T/8Z2qElJ+M/5RvoIn28R/+w38mBkj9qfgP/+E/9WNsYgH4z0R4yk/Ff/gP/ykfYlPt4z/8h/9MjZDyk/Gf8g000T7+w3/4z8QAqT8V/+E//Kd+jE0sAP+ZCE/5qfgP/+E/5UNsqn38h//wn6kRUn4y/lO+gSbax3/4D/+ZGCD1p+I//If/1I+xiQXgPxPhKT8V/+E//Kd8iE21j//wH/4zNULKT8Z/yjfQRPv4D//hPxMDpP5U/If/8J/6MTaxAPxnIjzlp+I//If/lA+xqfbxH/7Df6ZGSPnJ+E/5BppoH//hP/xnYoDUn4r/8B/+Uz/GJhaA/0yEp/xU/If/8J/yITbVPv7Df/jP1AgpPxn/Kd9AE+3jP/yH/0wMkPpT8R/+w3/qx9jEAvCfifCUn4r/8B/+Uz7EptrHf/gP/5kaIeUn4z/lG2iiffyH//CfiQFSfyr+w3/4T/0Ym1gA/jMRnvJT8R/+w3/Kh9hU+/gP/+E/UyOk/GSH919a7OmAk35+/gGnI5Iyi4SdmRBxwt/f70RA8PmkrAvPpCeEBp/y8/Pz8w9JKPriImfmPfD29vby8ip53DpH8B/+w3/WmfeSK8V/+A//lZwL6xxxbP9lxAYsHl7zvQ/efvvdd2u2nrovKqNgZxLD1g5r/1rtd9+qXeezbhN2RyQZmYkhG1wb1/3kzbff+d9/PhzkHpFe8GJ7n+A//If/8J+9e4NVjuE//If/rDLt9tbp0P5LO7m8Rd1uSw6cz8xI+cOta4Nv5p5Ku7iIFK8xT9YctjchLT0m8NdBnzT+9WBiqHvf9r9MXHU0MdOI8Ohf473RR1LsrTj/GP7Df/gP/+XfD6z4O/7Df/jPipOfv2aH9l+ku0tdl2WnolMNIzP88JK+NXp5Rl1sPHHnyCc6zg5OzjBSo3fNHdaq6+/Hfdx+GDtl68k4wzCy0j26V2u+Njx/lfZ+x3/4D//hP3v3Bqscw3/4D/9ZZdrtrdPR/dfJdUNIXEZJ/xlRXr+0qtfk2zbftWn55af1WvRY7+fjNsR1jldwMv6zt9F2juE//If/7AyGZQ7hP/yH/ywz7nYW6uj+qzPU7WTUha//rRxSa/zhS3+mL+3s4W2/r129eun8gb3bN57tE+nj9t3IiRv9Y/P859nrwZ67879ZbGfdhsHX//Af/sN/dm8OFjnoyP5r0KDBxxX8UadOnWeeeabcN1m/fr2zXg/u7u74z1k393LW5dD+ywxZ3+G99jN3n81IT3af3vbjH1dHFF9TdszplQM++Gz6gdSs817DWv/osvBgXIZxZs33z9abe6b4i4s8xn/4D//hvyI3BYs9cGT//etf9x04sK7Sf7Vr13Tq1KnOel3gvwkTJjjr5l7Ouhzaf0Z2RuBv3Z97+uEqVR564fWRu5PSs41z7qN+GDhwYcCJHb/UePHBqlWffP6VqTvj0rIMIyczbNuET/731L+qVK32r06bE9KyywwA/+E//If/yrxJOPmTjuy/qlX/ZRjBlf5r4MAu+M+JxwD/eXh4/Kn9tf2pVzvsi/Ef/sN/+M9hb1BXoTH8V64v8d9VuA4r8S3wH/6rxMuvMt8a/+E//FeZE1jZ763Bf6cSwnce3LFkR+6v3wOj/bOyj5z22h6dbudLg5lpPoH7PWIzij+VmeB9bK97TInj5eLPMIIHDuwyefLk7OzsnJycyt4u+ffn+7/4D//Jz5WKivgP/+E/FaNaQU1q8N/hvbN+bPDY8x/V/6xRnU9aDphzItat+/1frg0vjjzDCI49M7P38622ni/+VNimjs0++G6h/4nLAV+x1wwc2GXkyJExMTHJyclZWVlOpkD8h//wXwXdXR29LP7Df/jP0ae0IvtT4r/+QzuMOp4QbITPafJkh9Uhc/L95xfsNW/28O7Dh4/yOHEoI/uPld3rvVPlpc6Tp/icLUy9o1t7fzVykcuI2ZtTcv9Aoe+xNYu2r5o8bvma6KzTiec3rhjeffivU3cFHjEM/9Pu4yeN7j7SpfcG/2MXIDhwYJdu3bodPnw4PDw8NTUV/1Xk9VgJtfEf/quEy84R3hL/4T/85wiTWFk96PJfwvExX773i8fZuRf8lxCydNawxj179BjfvVXdga4nE3b/3r/R+9Ve7eY60zeikP9il3T/ccKxwGWzh37vlfulQc+FTT5p0bbTiKVro1KOes3/otcvvXr16jR2gdu5tBNBu6fOnNJ/7OhvurRwDc376ZOBA7u0bNly3bp1x48fT0hIyM4u+6cKK2snr/B9+fof/sN/Vzg82k/Df/gP/2mfYjP9K/Ff53oP/d+7H79f5/V63RavikhclOe/48dWDx3auad3xCkjflmXd1st8vW1+/1f/3k1u644mBntvnxWu35b9ub576s+k5dFpwalxq3o/sRtz79Tq9Zr/2n0Y6+D54ONoPnff1v304//+9pjrbbH5n4feeDALl999ZWbm9vBgwdjY2OzsrLMBO5o5+I//If/HG0qr1I/+A//WdZ/WdnZ2w+eaTVs7Q/T/rDsr+bDN3433tMxl3/nPffmfQf28N5Zvbp9+cOS7au9vd3PJwdkpC3N85/vgQUDh3474mh8sGFsHvfyl9O8fOz5b/uEl+6p9sR/XnrhyUcffqF+97nhuV//+2b8wg3xGcHJ0XN/fvCD8RtWe3uvPnbaO+nkgo59+7tuXOK5fXCbRxquj7jov3r16s2dO3ffvn347yr9P9NVfBv8h/+u4uXmSG+F//CfZf2XkJLRYrTnh3021+GXQybwj7vuyfdf/p//y/uGbOZF/wWd9R47bFDzNceOZB8d99bXfXaeO57nv5abIwJzcvJ/BOTw0Ke6TDgT6n327N4j28dMGfvNjtBL/ktLWOdS98kBW/ZnZwfm5AQZfpPeGzzRJ+xo3LbOj+A/R/q/qorrBf/hv4q7uhy6Mv7Df5b1X1xS+gX51R20rdkoT2v+qj9oU5MR2x1z7XfcfcF/Rw4tcZnUe0pA0kXSZaavGv5qm7wf8j24Z0r7OvdXuf/+t0du9EzJCk6P957zfZUXPvpywUHfCz+9cWTOBy7bvbIvcDB6x5wloybtWrmqU5dZq7YmZgYb2QFndvT+MLdCjS5jl54zPBY2eeeZ+6s80v37EW9+tyOSr/859P9/iTSH//CfyIWkrwj+w3/4b+Ka4/pGV6hjDX/+L/8reZX0b4EMHNiF7/8KXW6OWAb/4T9HvC6vQk/4D//hP/x3FW41V/AWjvPvv+G/K9g+LafgP/yn5VoV7hP/4T/8h/+EbytC5e655+5Ro3pX+q8PPngL/wltqSOWwX/4zxGvy6vQE/7Df/gP/12FW80VvMXEiRNH53+MGDGiT58+7dq1a9iw4eeff/6p0Mc/n3jt3n+/9u8X3iq7Xvfu3RctWnTw4MG4uDj+/r8r2EpHPgX/4T9Hvj4rsDf8h//wH/6rwFuMUOmMjIyIiAhvb++VK1fOnz9/jtDHC1/88synXT/7dkDZ9dzc3DZt2nTixInExET8J7SljlIG/+E/R7kWr3If+A//4T/8d5VvO1fwdtnZ2YmJiWfOnPH19d23b99eoY+32k5+vfXE1gPml13vwIED/v7+58+fT0tL499/u4Ltc+RT8B/+c+TrswJ7w3/4D//hvwq8xQiVzsnJycjISEpKiouLi5H7+LD7ylo//9Z1qnvZJWNjYxMTE9PS0rKzs/Gf0JY6Shn8h/8c5Vq8yn3gP/yH//DfVb7tXNnb5eTkZOd9ZMl9fDpg8we9N/aeu6/skhfeNyfv48qad9iz+Pff8B/+c9jxrNjG8B/+w3/4r2LvMg5c/fOBW+v02dxn3kEH7rFiW8N/+A//VeyMOWx1/If/8B/+c9gbVEU3hv/wH/7DfxV9n3HQ+vgP/+E//Oegt6eKbwv/4T/8Z1H/Hdu2zX3o4IBfZ1r219KOHU7OdLXs8r1HjdzSp5dllx/w68zVXX46MnmSNRM4Om36sFa9h7XqvbTnCGsmEPDrzA09ux8YO9qyy3f5ps+wVr1ndxli2QS2D+i3Z/hQyy4/4NeZi7r8mBQUVPH/reGg7+Dj42NR/51ZtXLrRx9s+/B9fpEACZAACZAACVgtga2ffXxslIuD6qzi27Ku/0JWrrDatc56SYAESIAESIAELiSw45MPT0ybUvHQctB3sK7/9u/ZvWf9+pTws5b9NWPkyOSwMMsu/+juXZuWLLHs8lPCz7pNnRrh52fNBM6dCm7UbVmjbsumL9hpzQRSws+unT//5L59ll1+857LG3VbNnTKVssm4L5q1YHt2y27/JTws9NGDM9MTHRQnVV8W9b1n7e3t5eXV8Un7LjvwM9/8PMf/PwHP//huHeoCu6Mn//g5z/4+Q+L/vk//If/8B/+w38VrCzHLY//8B/+w3+Oe4eq0M7wH/7Df/ivQm8yjlwc/+E//If/HPkeVYG94T/8h//wXwXeYhy7NP7Df/gP/zn2XarCusN/+A//4b8Ku8E4emH8h//wH/5z9PtUBfWH//Af/sN/FXR7cfyy+A//4T/85/h3qgrpEP/hP/yH/yrk5qKhKP7Df/gP/2m4V1VAj/gP/+E//FcBtxYdJfEf/sN/+E/H3Uq8S/yH//Af/hO/sWgpiP/wH/7Df1ruV8J94j/8h//wn/BtRU85/If/8B/+03PHEu0U/+E//If/RG8qmopd8F+nqX/sPRFlzV+zftu+dONea679wqoHjPk1NjFd01Ur2iv//ptonKqK4T/8h//wn6qblmSzdQdtq9NnM7+snMAXAzbO2xogeVWpqoX/VG2XaLP4D//hP/wnelPRVKzPvINWpg9rr9Nn80f9toxY5qvpqhXtFf+JxqmqGP7Df/gP/6m6aUk2ezw4utfYRRv3h1n21wS37TNXeVl2+Rv3h/3iMi8gPEHyqlJVy+H9d+r3Vk3qvffeh41ajd8XUyTaqJ3jP//kw/fe+/Sbzr8ejs97KnRn387N33vvvTof9nCPLPLikg+8vb29vLxKHrfOEfyH//Af/rPOHa/YSlNSUlxdXYsdtNRDfv6Dn/9w4J//iNk7pm7b3nN3HNy/d2avRnVH74wtmM6onb3f/GWm136fPdvGDmz3w5rTRqLfgs5de4xctvPgkfVDG7zUdUPZAsR/+A//4T/8V3BPtdon+A//4T/H9V/UzjFv9Zx5JCLJMDJDDyzo+U6/XdH596hzmzs902t16PmYMP/Z4zt8u8w//vDiFgNHrTx8PscwMpK2/FS99fqI/Bfb+x3/4T/8h//wn727oyWO4T/8h/8c13+R7i6dXDeExGUYRmb44SV9a/TyjLp0Y0rd0fsf91a7/4nH/zdsU3y6EefjNsR1jldwsmEYWeke3as1Xxt+6cUlP8N/+A//4T/8V/LeaJEj+A//4T+H9l+LiauDYtLz/LdswNuD/rjw5/wMw0gMnT38s896LT+4adjHn381fX1EuI9bz8muHqcTL/ivx/3tNhd8sdDe/Qz/4T/8h//wn727oyWO4T/8h/8c13+Jh2Z/3nroVv+Y7Ky0oxvGdmyyMCj/vpTiNebJzvNDkzOMtBgv16Gtmi06ErCu88/9Z28/nZZtxPnNaPjqhOP5L7b7O/7Df/gP/+E/u7dHKxzEf/gP/zmu/4zkwN+6tm/UsUe/vv07Ne08ZMuJZCPxlPuqzZsPBB1e2bZZ4859+w3s80unFk26Tjsckxq+bUyf1t/+2L3fwJ/qt/phuW/uVwJL/8B/+A//4T/8V/o90smfwX/4D/85sP8MIznYa8Ec16lTZyxY4pP3Z/+SQ/Zu27PnWGxaymmPRa7Tp06dOnX+sjUBeT8YnBrhu2bpnKlTp06bvrPMn/3Iva/hP/yH//Af/nNy5ZW+PPyH//CfQ/uv9OE1+wz+w3/4D//hP7N3UrXn4z/8h//wn9obmLnG8R/+w3/4z9xdRPHZ+A//4T/8p/gWZqZ1/If/8B/+M3MPUX0u/sN/+A//qb6JXXnz+A//4T/8d+V3EOVn4j/8h//wn/Lb2JW2j//wH/7Df1d6/1B/Hv7Df/gP/6m/kV3ZAvAf/sN/+O/K7h5OcBb+w3/4D/85wa3sSpaA//Af/sN/V3LvcIpz8B/+w3/4zyluZn9+EfgP/+E//Pfn7xxOcgb+w3/4D/85ye3szy4D/+E//If//ux9w2lej//wH/7Df05zQ/tzC8F/+A//4b8/d9dwolfjP/yH//CfE93S/sxS8B/+w3/478/cM5zqtfgP/+E//OHg6y4AACAASURBVOdUN7XLXwz+w3/4D/9d/h3DyV6J//Af/sN/TnZbu9zl4D/8h//w3+XeL5zudfgP/+E//Od0N7bLWxD+w3/4D/9d3t3CCV+F//Af/sN/Tnhru5wl4T/8h//w3+XcK5zyNfgP/+E//OeUN7fyF4X/8B/+w3/l3ymc9BX4D//hP/znpLe38paF//Af/sN/5d0nnPZ5/If/8B/+c9obXNkLs7L/UtKzVnmebOOy4ccZ3pb91XTIuu+n7Lbm8jtN/aNOn811+mzGf2XfJZz4WfyH//Af/nPiW1xZS7Oy/4LOJTZz8fgwTwAXHMD/WjMB/FfWPcKpn8N/+A//4T+nvsmVvjgr++9EaPwF7tQbvP1rFw9r/qo3YGPjETusufavXTwaD9/RdtyOPcfPlT4iTv7M6tWrg4KCnHyRpS8P/+E//If/Sr9DOPUz+K9On81LPAOdepPLWtz8+fMt++f/DMOIiIhYunRpWQE5+3P4z9XV1dk3uaz14T/8h//KmhAnfg7/4T/858QDXu7S8B/+O3ToULnXiRO/AP/hPye+vMtaGv7Df/ivrAlx9ufwH/7Df84+5WWtz8fHB/+VFZATP4f/8B/+c+IBL3dp+A//4b9yx8SJX4D/nHhzy1ka/sN/+K+cIXHqp/Ef/sN/Tj3i5SwO/5UTkBM/jf/wH/5z4gEvd2n4D//hv3LHxIlfgP+ceHPLWRr+w3/4r5whceqn8R/+w39OPeLlLA7/lROQEz+N//Af/nPiAS93afgP/+G/csfEiV+A/5x4c8tZGv7Df/ivnCFx6qfxH/7Df0494uUsDv+VE5ATP43/8B/+c+IBL3dp+A//4b9yx8SJX4D/nHhzy1ka/sN/+K+cIXHqp/Ef/sN/Tj3i5SwO/5UTkBM/jf/wH/5z4gEvd2n4D//hv3LHxIlfgP+ceHPLWRr+w3/4r5whceqn8R/+w39OPeLlLA7/lROQEz+N//Af/nPiAS93afgP/+G/csfEiV+A/5x4c8tZGv7Df/ivnCFx6qfxH/7Df0494uUsDv+VE5ATP43/8B/+c+IBL3dp+A//4b9yx8SJX4D/nHhzy1ka/sN/+K+cIXHqp/Ef/sN/Tj3i5SwO/5UTkBM/jf/wH/5z4gEvd2n4D//hv3LHxIlf4PD+izq2eMHsadNmzF/sGZJSaCOijy9dOGfaxY8F67YHJBiGEXd6w0q3adOmzZjx+6mkQi+296m3t7eXl5e9Z6xyDP/hP/xnlWm3t078h//wn73JsMoxx/ZfctCmQT2bfN+rT+8+7Rs367nqZHLBvkQcmDJ+5IABAwb06tasQb26g3bEpoZ7TR/Ztn23X/oM+PHLz1rO9k0seLG9T/Af/sN/+M/evcEqx/Af/sN/Vpl2e+t0aP8lHpr9ReuhW/xjsrPSjm4Y0ab+hBKmy0k5f2Bu/69ddsWlBKzv/HP/2dtPp2UbcX7T67/SyyvO3orzj+E//If/8F/+/cCKv+M//If/rDj5+Wt2aP9Furs0n7gqKCbdMDLDDy/pW6OXZ1R+4xd+z84I3OLyxU9T/JOMOB+3npNcPU7nftUvK92je7Xma8OLvrjoI/yH//Af/it6V7DWI/yH//CftWa+6God3X+dXDeExGWU5r+stFNz2r403CMxy8j13xDXOV7Bud8ixn9Fd9n+I/yH//Cf/dmwxlH8h//wnzVm3f4qHdp/UZ5j3ur169GIJMPIDD2wfFCdGX45RZYRv7n3488NO5iVezD+8OIWA0et8o3MMYyMpK3dHx1yoOiLi5xpGHz9D//hP/xX7LZgqYf4D//hP0uNfLHFOrT/jJi9Iz5p2XvuDp+D+2f1bt5g3M5YIzPpfFhERGx6lmFkJvzW6ckuGyMuLinBb27HH7sPX7rb5+jG4V+/2mN9ZLG1Fn2I//Af/sN/Re8K1nqE//Af/rPWzBddrWP7zzBivGc2bfBxrVofft1m6enc1qP3zR05ffq6kATDiPIc8tVsv0LriT+6slvbL2vVqvV+nUnHCh23+yn+w3/4D//ZvTlY5CD+w3/4zyLDbneZju4/u02LHMR/+A//4T+Rm4nSIvgP/+E/pcMr0jb+E4lRZRH8h//wn8rRFWoa/+E//Cc0TCrL4D+V2ybSNP7Df/hPZJSUFsF/+A//KR1ekbbxn0iMKovgP/yH/1SOrlDT+A//4T+hYVJZBv+p3DaRpvEf/sN/IqOktAj+w3/4T+nwirSN/0RiVFkE/+E//KdydIWaxn/4D/8JDZPKMvhP5baJNI3/8B/+ExklpUXwH/7Df0qHV6Rt/CcSo8oi+A//4T+VoyvUNP7Df/hPaJhUlsF/KrdNpGn8h//wn8goKS2C//Af/lM6vCJt4z+RGFUWwX/4D/+pHF2hpvEf/sN/QsOksgz+U7ltIk3jP/yH/0RGSWkR/If/8J/S4RVpG/+JxKiyCP7Df/hP5egKNY3/8B/+ExomlWXwn8ptE2ka/+E//CcySkqL4D/8h/+UDq9I2/hPJEaVRfAf/sN/KkdXqGn8h//wn9AwqSyD/1Rum0jT+A//4T+RUVJaBP/hP/yndHhF2sZ/IjGqLIL/8B/+Uzm6Qk3jP/yH/4SGSWUZ/Kdy20Saxn/4D/+JjJLSIvgP/+E/pcMr0jb+E4lRZRH8h//wn8rRFWoa/+E//Cc0TCrL4D+V2ybSNP7Df/hPZJSUFsF/+A//KR1ekbbxn0iMKovgP/yH/1SOrlDT+A//4T+hYVJZBv+p3DaRpvEf/sN/IqOktAj+w3/4T+nwirSN/0RiVFkE/+E//KdydIWaxn/4D/8JDZPKMvhP5baJNI3/8B/+ExklpUXwH/7Df0qHV6Rt/CcSo8oi+A//4T+VoyvUNP7Df/hPaJhUlsF/KrdNpGn8h//wn8goKS2C//Af/lM6vCJt4z+RGFUWwX/4D/+pHF2hpvEf/sN/QsOksgz+U7ltIk3jP/yH/0RGSWkR/If/8J/S4RVpG/+JxKiyCP7Df/hP5egKNY3/8B/+ExomlWXwn8ptE2ka/+E//CcySkqL4D/8h/+UDq9I2/hPJEaVRfAf/sN/KkdXqGn8h//wn9AwqSyD/1Rum0jT+A//4T+RUVJaBP/hP/yndHhF2sZ/IjGqLIL/8B/+Uzm6Qk3jP/yH/4SGSWUZ/Kdy20Saxn/4D/+JjJLSIvgP/+E/pcMr0jb+E4lRZRH8h//wn8rRFWoa/+E//Cc0TCrL4D+V2ybSNP7Df/hPZJSUFsF/+A//KR1ekbbxn0iMKovgP/yH/1SOrlDT+A//4T+hYVJZBv+p3DaRpvEf/sN/IqOktAj+w3/4T+nwirSN/0RiVFkE/+E//KdydIWaxn/4D/8JDZPKMo7tv+yM5N1TXn7uySpVHvjPyx1WBWfkFAo5M8VvWpNHq1atWvWV939YddLIyUw9tLTB+6/8q0rVav/8ZM6JtOxCLy75qbe3t5eXV8nj1jmC//Af/rPOvJdcKf7Df/iv5FxY54hD+y8zZH3H99rN3HU2Iy3JfXqbDzsvD83M35rMhA3dX2+33D//sZF13mt4q84uCw/GZRhnVnf8T70ZpwteXPCiQp/gP/yH//BfoVuC5T7Ff/gP/1lu7Ast2KH9F+nuUmeo28moFMPIDD+8pG+NXp5R+b0Hr6j/6NcDF/+2du3arZ5eYYlGnI9b25ETN/jHGoaRle7RvVrzteH5L7b3O/7Df/gP/9m7N1jlGP7Df/jPKtNub52O7r9OrhtC4jLs+O/QjKdfff/Llq2/bdW0aYMG/d0Czvi4DXGd4xWcjP/sbbSdY/gP/+E/O4NhmUP4D//hP8uMu52FOrr/6o1adio6Nc9/vw161+VASv4aTi35sPm0o4npRkbcvgVjOzRbdMDH7YexU7aejMvzn2evB39yT8x/sb3f+fof/sN/+M/evcEqx/Af/sN/Vpl2e+t0aP+lnlzeol63pQfOZ2akeLt1b9x2eWjBGlK8+rz189rTyVkp5zdO79mu54YzoTv6tP9l0qpjiZlGhOeAmh+4ni54sb1P8B/+w3/4z969wSrH8B/+w39WmXZ763Ro/xkZMX9M6lzj3Vrv1Hyvznt9lgREZRjR++aMmDZt3ZmExKDZfV9+u/Y7b9f5/Mtha4JiMjITjiwe9uVHtWu8U+vNZ9tOOxKRbm/BBcfwH/7Df/iv4IZgwU/wH/7DfxYc/IIlO7b/DCMz8VzACb9jx/wCTkWn5XadmRQZdu5cbHqWYaRG+/sdP3bM/3Rw7AXqZaXEBJ8+cezYsePHIwq+UVyw1GKf4D/8h//wX7HbgqUe4j/8h/8sNfLFFuvo/ivWruBD/If/8B/+E7ylqCuF//Af/lM3toIN4z/BMJWVwn/4D/8pG1rRdvEf/sN/oiOlrBj+U7Zhgu3iP/yH/wQHSl0p/If/8J+6sRVsGP8JhqmsFP7Df/hP2dCKtov/8B/+Ex0pZcXwn7INE2wX/+E//Cc4UOpK4T/8h//Uja1gw/hPMExlpfAf/sN/yoZWtF38h//wn+hIKSuG/5RtmGC7+A//4T/BgVJXCv/hP/ynbmwFG8Z/gmEqK4X/8B/+Uza0ou3iP/yH/0RHSlkx/KdswwTbxX/4D/8JDpS6UvgP/+E/dWMr2DD+EwxTWSn8h//wn7KhFW0X/+E//Cc6UsqK4T9lGybYLv7Df/hPcKDUlcJ/+A//qRtbwYbxn2CYykrhP/yH/5QNrWi7+A//4T/RkVJWDP8p2zDBdvEf/sN/ggOlrhT+w3/4T93YCjaM/wTDVFYK/+E//KdsaEXbxX/4D/+JjpSyYvhP2YYJtov/8B/+ExwodaXwH/7Df+rGVrBh/CcYprJS+A//4T9lQyvaLv7Df/hPdKSUFcN/yjZMsF38h//wn+BAqSuF//Af/lM3toIN4z/BMJWVwn/4D/8pG1rRdvEf/sN/oiOlrBj+U7Zhgu3iP/yH/wQHSl0p/If/8J+6sRVsGP8JhqmsFP7Df/hP2dCKtov/8B/+Ex0pZcXwn7INE2wX/+E//Cc4UOpK4T/8h//Uja1gw/hPMExlpfAf/sN/yoZWtF38h//wn+hIKSuG/5RtmGC7+A//4T/BgVJXCv/hP/ynbmwFG8Z/gmEqK4X/8B/+Uza0ou3iP/yH/0RHSlkx/KdswwTbxX/4D/8JDpS6UvgP/+E/dWMr2DD+EwxTWSn8h//wn7KhFW0X/+E//Cc6UsqK4T9lGybYLv7Df/hPcKDUlcJ/+A//qRtbwYbxn2CYykrhP/yH/5QNrWi7+A//4T/RkVJWDP8p2zDBdvEf/sN/ggOlrhT+w3/4T93YCjaM/wTDVFYK/+E//KdsaEXbxX/4D/+JjpSyYvhP2YYJtov/8B/+ExwodaXwH/7Df+rGVrBh/CcYprJS+A//4T9lQyvaLv7Df/hPdKSUFcN/yjZMsF38h//wn+BAqSuF//Af/lM3toIN4z/BMJWVwn/4D/8pG1rRdvEf/sN/oiOlrBj+U7Zhgu3iP/yH/wQHSl0p/If/8J+6sRVsGP8JhqmsFP7Df/hP2dCKtov/8B/+Ex0pZcXwn7INE2wX/+E//Cc4UOpK4T/8h//Uja1gw/hPMExlpfAf/sN/yoZWtF38h//wn+hIKSvm8P4L3tqlY5vGjZt26PLrobjC4cZ5/9qlRdPGjRs3/r7nkD1heU+Fe7v069y4ceOvmw7zii78Yjufe3t7e3l52XnCMofwH/7Df5YZdzsLxX/4D//ZGQzLHHJs/8X5TGvW4efJK7Zs2jCuS+Ovp3jHX9qYiOVt6/act37Hjh179h06n2wYSQG/9ezZdeCs1Vt2uPX88q1+28oWIP7Df/gP/126o1jvM/yH//Cf9eb+0ood2n8xeya88/OUA6GJOTkZwX/M6vreoD9iC1qPWN625ezjiQWPE44sb91n+LL94Vk5Rlr02g6Ptdt8vuBJO5+s2xPQbNimVmN3WvZXvf7rWo2x6PKbunjU6bMZ/+E/O7cGyxzCf/gP/1lm3O0s1KH9F+nu0nHG+pC4DMPIDD+8pG+NXp5RBWs4v7bLaw89UKVKlSff/mTy/pSMWB+3wTNm7wlONgwjK92je7Xma8MLXmznk5V7gi8IgP+1bAIf99uyfFeQnYvDGofmz5+P/6yx1fZXif/wH/6zPxvWOOro/vtm8prg2PQ8/y3r//aAPUX+CGDuFmXGhy4e2bqui3ugj1ufKTN3BuZ+RTAr3aPH/d9uvIRFO5v5u9epli5bO0z2suyvrwastezaO0z2+maM+y8zdh4LKXFJ2blYnPMQ/lu6dKlzbu3lrQr/4T/8d3mz4pyvcmj/xR9w/bidi8epuOzsdP+tU376av7pEruQlRD224RvG0z0OndiTYdfBs3fGZyebSQEzm/x0tijJV5c+AB//s/Kf/7PMAx/f/+NGzcWviSs9jn+w39BQdb9+ndKSgr+w39Wu+0XXq9D+89IPLGg43eteoycMH5CjzYde646mmQkn9m7bffuY7FhxxbPnzVlypRxY0a079p26r5wIyVk/dCe33Xq6zJhyqCWLVvO2Vfoh0UKL/ni5/gP/+E/vv9r59ZgmUN8/Q//4T/LjLudhTq2/wwjMWDbxLHDBw0aNnG617nc/hNPua/esuVgVNDBaRNHDxo0aNDwsbO3BeT+oT/DSAnZu2DGmEGDBg0ZujHUzmKLHMJ/+A//4b8iNwWLPcB/+A//WWzoiyzX0f1XpFnRB/gP/+E//Cd6U1FWDP/hP/ynbGhF28V/onGqKob/8B/+UzWyws3iP/yH/4SHSlU5/Kdqu0SbxX/4D/+JjpSyYvgP/+E/ZUMr2i7+E41TVTH8h//wn6qRFW4W/+E//Cc8VKrK4T9V2yXaLP7Df/hPdKSUFcN/+A//KRta0Xbxn2icqorhP/yH/1SNrHCz+A//4T/hoVJVDv+p2i7RZvEf/sN/oiOlrBj+w3/4T9nQiraL/0TjVFUM/+E//KdqZIWbxX/4D/8JD5WqcvhP1XaJNov/8B/+Ex0pZcXwH/7Df8qGVrRd/Ccap6pi+A//4T9VIyvcLP7Df/hPeKhUlcN/qrZLtFn8h//wn+hIKSuG//Af/lM2tKLt4j/ROFUVw3/4D/+pGlnhZvEf/sN/wkOlqhz+U7Vdos3iP/yH/0RHSlkx/If/8J+yoRVtF/+JxqmqGP7Df/hP1cgKN4v/8B/+Ex4qVeXwn6rtEm0W/+E//Cc6UsqK4T/8h/+UDa1ou/hPNE5VxfAf/sN/qkZWuFn8h//wn/BQqSqH/1Rtl2iz+A//4T/RkVJWDP/hP/ynbGhF28V/onGqKob/8B/+UzWyws3iP/yH/4SHSlU5/Kdqu0SbxX/4D/+JjpSyYvgP/+E/ZUMr2i7+E41TVTH8h//wn6qRFW4W/+E//Cc8VKrK4T9V2yXaLP7Df/hPdKSUFcN/+A//KRta0Xbxn2icqorhP/yH/1SNrHCz+A//4T/hoVJVDv+p2i7RZvEf/sN/oiOlrBj+w3/4T9nQiraL/0TjVFUM/+E//KdqZIWbxX/4D/8JD5WqcvhP1XaJNov/8B/+Ex0pZcXwH/7Df8qGVrRd/Ccap6pi+A//4T9VIyvcLP7Df/hPeKhUlcN/qrZLtFn8h//wn+hIKSuG//Af/lM2tKLt4j/ROFUVw3/4D/+pGlnhZvEf/sN/wkOlqhz+U7Vdos3iP/yH/0RHSlkx/If/8J+yoRVtF/+JxqmqGP7Df/hP1cgKN4v/8B/+Ex4qVeXwn6rtEm0W/+E//Cc6UsqK4T/8h/+UDa1ou/hPNE5VxfAf/sN/qkZWuFn8h//wn/BQqSqH/1Rtl2iz+A//4T/RkVJWDP/hP/ynbGhF28V/onGqKob/8B/+UzWyws3iP/yH/4SHSlU5/Kdqu0SbxX/4D/+JjpSyYvgP/+E/ZUMr2i7+E41TVTH8h//wn6qRFW4W/+E//Cc8VKrK4T9V2yXaLP7Df/hPdKSUFcN/+A//KRta0Xbxn2icqorhP/yH/1SNrHCz+A//4T/hoVJVzuH9F3d607o1y5evWLfpQERa8WhzshKOu6/Z6nk64cIziWG7d2xYvnz5byt2hqQUf3Gxx97e3l5eXsUOWuoh/sN/+M9SI19ssfgP/+G/YkNhqYeO7b+U0F1j+tZr2aF9u/bN6rYYtCkotejmRB+e3bHJhw3emXrcMIz0yEPzxrVu3a5N++9bfPBpx6Unkou+uNgj/If/8B/+K3ZbsNRD/If/8J+lRr7YYh3af0lH5jdoNmDd0eiszNRDqwe1bDz1WGHTxftObNhu8KqFw/L8lxq46ecf+7huOpmSZUQfGv/pGwP2XvyqYLElX3yI//Af/sN/9u8O1jiK//Af/rPGrNtfpUP7L9Ldpcm4lYExaYaRGX54Sd8avTyjLi3j1NKGPw7aedxvzQX/xfm4dZs4fcepXPRlpXt0r9Z8bfilF5f8DP/hP/yH/0reGaxzBP/hP/xnnXkvuVJH918n1w0hcRl2/Bew5otB449EJJ8v5L8hrnO8gnO/Qoj/Su50ySP4D//hv5JzYZ0j+A//4T/rzHvJlTq6/94eMM8/MiXPf6uGvTflaNbFJRyfW/ehh+57sHr1B6rdd8dNj37aboanu1vLoeN+Px6d5z/P3tX7781/ccllG4bB1//wH/7Df3ZvDhY5iP/wH/6zyLDbXaZD+8+I2tWvdsuhKw+FnglcNqTpx0O2RhvZ6UnxiYkpmZmZGenp6ekpob4rBr89yTczKzvOd1qbTn0nbPILPec9pel/OqyMsLvi/IP4D//hP/yXfz+w4u/4D//hPytOfv6aHdt/hhG1c/zHtV57/vn/flR/7oncpiP3TO0zZsxvQfEXVpAdE+Qxq+2ywLxHcT6L2jZ45/nnn3/p5eGH81dY2u/4D//hP/xX2v3BCsfxH/7Df1aY9NLW6Oj+K61v88fxH/7Df/jP/J1EbwX8h//wn975Nd85/jOfodYK+A//4T+t0yvRN/7Df/hPYpK01sB/WnfOfN/4D//hP/NzpLcC/sN/+E/v/JrvHP+Zz1BrBfyH//Cf1umV6Bv/4T/8JzFJWmvgP607Z75v/If/8J/5OdJbAf/hP/ynd37Nd47/zGeotQL+w3/4T+v0SvSN//Af/pOYJK018J/WnTPfN/7Df/jP/BzprYD/8B/+0zu/5jvHf+Yz1FoB/+E//Kd1eiX6xn/4D/9JTJLWGvhP686Z7xv/4T/8Z36O9FbAf/gP/+mdX/Od4z/zGWqtgP/wH/7TOr0SfeM//If/JCZJaw38p3XnzPeN//Af/jM/R3or4D/8h//0zq/5zvGf+Qy1VsB/+A//aZ1eib7xH/7DfxKTpLUG/tO6c+b7xn/4D/+ZnyO9FfAf/sN/eufXfOf4z3yGWivgP/yH/7ROr0Tf+A//4T+JSdJaA/9p3TnzfeM//If/zM+R3gr4D//hP73za75z/Gc+Q60V8B/+w39ap1eib/yH//CfxCRprYH/tO6c+b7xH/7Df+bnSG8F/If/8J/e+TXfOf4zn6HWCvgP/+E/rdMr0Tf+w3/4T2KStNbAf1p3znzf+A//4T/zc6S3Av7Df/hP7/ya7xz/mc9QawX8h//wn9bplegb/+E//CcxSVpr4D+tO2e+b/yH//Cf+TnSWwH/4T/8p3d+zXeO/8xnqLUC/sN/+E/r9Er0jf/wH/6TmCStNfCf1p0z3zf+w3/4z/wc6a2A//Af/tM7v+Y7x3/mM9RaAf/hP/yndXol+sZ/+A//SUyS1hr4T+vOme8b/+E//Gd+jvRWwH/4D//pnV/zneM/8xlqrYD/8B/+0zq9En3jP/yH/yQmSWsN/Kd158z3jf/wH/4zP0d6K+A//If/9M6v+c7xn/kMtVbAf/gP/2mdXom+8R/+w38Sk6S1Bv7TunPm+8Z/+A//mZ8jvRXwH/7Df3rn13zn+M98hlor4D/8h/+0Tq9E3/gP/+E/iUnSWgP/ad05833jP/yH/8zPkd4K+A//4T+982u+c/xnPkOtFfAf/sN/WqdXom/8h//wn8Qkaa2B/7TunPm+8R/+w3/m50hvBfyH//Cf3vk13zn+M5+h1gr4D//hP63TK9E3/sN/+E9ikrTWwH9ad8583/gP/+E/83OktwL+w3/4T+/8mu8c/5nPUGsF/If/8J/W6ZXoG//hP/wnMUlaa+A/rTtnvm/8h//wn/k50lsB/+E//Kd3fs13jv/MZ6i1Av7Df/hP6/RK9I3/8B/+k5gkrTUc3n9H59V4+emqVau/WKP7jsgiKUes6/7Eo9WrPvb8Z0O3RV945tS6Fp+9XrVq1QerN1pztsiLSz7w9vb28vIqedw6R/Af/sN/1pn3kivFf/gP/5WcC+sccWj/ZYdv/rHmN1M8wtJTE7dObF676+qI7IKtOTZt6u7U1PTY4M2DG709fnd0dvS+US06DZuzLybdCFz6zb8bzjmTVfBiO5/gP/yH//CfnVuDZQ7hP/yH/ywz7nYW6tD+i3R3qTV4wYnIFMPIDD+8pG+NXp5Rl9aQHn16r/fuzSvGDmo86UCsEefj9s3w8ev9YgzDyEr36F6t+drwSy8u+Rn+w3/4D/+VvDNY5wj+w3/4zzrzXnKlju6/Tq4bQuIy7Pov2mva143qN2r6lcuiLXtDEuJ83Ia4zvEKTsZ/JbfZ7hH8h//wn93RsMhB/If/8J9Fht3uMh3df1+N+e10dFqe/5YPfGf4vqRiq8hJjTw04ee6jVz3n/Nx6zJ+2raA+Av+6/lA5+25n5b6wdf/8B/+w3+l3iAs8AT+w3/4zwKDXuoSHdp/KX6LmzTstfJwZFZm6v5l/Vq0XhpSsJCzfyzfF5qWlZMRGzR32JeNZuyPC97a4/ueU3/3S84yIr1HfPDutICCF9v7BP/hP/yH/+zdG6xyDP/hP/xnlWm3t06H9p+Rdt59ZKf3P69fv37DLz/p8evhbGAiSAAAIABJREFUs2lG7KGlk+fP33Y2ZP+kXi0aN/rqy68aN+g2bFNwvJERu3/O4Eb16n1R/6tP32jj4hWcam/BBcfwH/7Df/iv4IZgwU/wH/7DfxYc/IIlO7b/DCM9JnCv1y4Pj53e+0PzvvebHhPsf/p0eEpmRtTJfbt2enjs8vIJjMnIW1BGfJjvAS8PDw/PnQEJBUss5RP8h//wH/4r5fZgicP4D//hP0uMeimLdHT/ldK2wGH8h//wH/4TuJWoLYH/8B/+Uzu+Ao3jP4EQlZbAf/gP/ykdXpG28R/+w38io6S0CP5TunECbeM//If/BAZJbQn8h//wn9rxFWgc/wmEqLQE/sN/+E/p8Iq0jf/wH/4TGSWlRfCf0o0TaBv/4T/8JzBIakvgP/yH/9SOr0Dj+E8gRKUl8B/+w39Kh1ekbfyH//CfyCgpLYL/lG6cQNv4D//hP4FBUlsC/+E//Kd2fAUax38CISotgf/wH/5TOrwibeM//If/REZJaRH8p3TjBNrGf/gP/wkMktoS+A//4T+14yvQOP4TCFFpCfyH//Cf0uEVaRv/4T/8JzJKSovgP6UbJ9A2/sN/+E9gkNSWwH/4D/+pHV+BxvGfQIhKS+A//If/lA6vSNv4D//hP5FRUloE/yndOIG28R/+w38Cg6S2BP7Df/hP7fgKNI7/BEJUWgL/4T/8p3R4RdrGf/gP/4mMktIi+E/pxgm0jf/wH/4TGCS1JfAf/sN/asdXoHH8JxCi0hL4D//hP6XDK9I2/sN/+E9klJQWwX9KN06gbfyH//CfwCCpLYH/8B/+Uzu+Ao3jP4EQlZbAf/gP/ykdXpG28R/+w38io6S0CP5TunECbeM//If/BAZJbQn8h//wn9rxFWgc/wmEqLQE/sN/+E/p8Iq0jf/wH/4TGSWlRfCf0o0TaBv/4T/8JzBIakvgP/yH/9SOr0Dj+E8gRKUl8B/+w39Kh1ekbfyH//CfyCgpLYL/lG6cQNv4D//hP4FBUlsC/+E//Kd2fAUax38CISotgf/wH/5TOrwibeM//If/REZJaRH8p3TjBNrGf/gP/wkMktoS+A//4T+14yvQOP4TCFFpCfyH//Cf0uEVaRv/4T/8JzJKSovgP6UbJ9A2/sN/+E9gkNSWwH/4D/+pHV+BxvGfQIhKS+A//If/lA6vSNv4D//hP5FRUloE/yndOIG28R/+w38Cg6S2BP7Df/hP7fgKNI7/BEJUWgL/4T/8p3R4RdrGf/gP/4mMktIi+E/pxgm0jf/wH/4TGCS1JfAf/sN/asdXoHH8JxCi0hL4D//hP6XDK9I2/sN/+E9klJQWwX9KN06gbfyH//CfwCCpLYH/8B/+Uzu+Ao3jP4EQlZbAf/gP/ykdXpG28R/+w38io6S0CP5TunECbeM//If/BAZJbQn8h//wn9rxFWgc/wmEqLQE/sN/+E/p8Iq0jf/wH/4TGSWlRfCf0o0TaBv/4T/8JzBIakvgP/yH/9SOr0Dj+E8gRKUl8B/+w39Kh1ekbfyH//CfyCgpLeLw/gvdNbhv906dOvcZvPh4QpGQ4w4t7tqlc6efe41ZcyzpwjPnDk0fM6BTp06dO08+EFvkxSUfeHt7e3l5lTxunSP4D//hP+vMe8mV4j/8h/9KzoV1jji2/+KPzm/fuePwWYvcFg7u8HWbWQcLCTBocZ8xU90Wz505tGOblkuPxhvJgesG9+vca/ysRcsmd6pXZ8SusgWI//Af/sN/1rnXl1wp/sN/+K/kXFjniEP7L9Z7ynudxnsFxedkp5/ynNr5o+H74gq2JvlsYGRqVnZSxOHp3V5zcY9MPL6ybc8hi/4Izcwxks8u++apH7ZHFbzYzif4D//hP/xn59ZgmUP4D//hP8uMu52FOrT/It1dvpv2+5nYdMPIDD+8pG+NXp7FSZcVeWLVgJo/bgnPjvNxGzBt1u6g3G8FZ6V7dK/WfG24nQUXHMJ/+A//4b+CG4IFP8F/+A//WXDwC5asyH9L+73Vd1dMQee5n6TFhvza66Wh284bhhHn49a/kP963N96fe7hUj/wH/7Df/iv1BuEBZ7Af/gP/1lg0EtdokP7L9Z76vudxuV///fX7vXmBBRaSOJZn+VTv28w7+iFYxe//+t18fu/3z07+kihF5f8FP/hP/yH/0reGaxzBP/hP/xnnXkvuVKH9p+RcGxmq2/bD3F1W7BgSMfvOrkdTDBSI456Hzp0OiE+Ykn7x+74osfSpUuXrtqw2/98enLQyr6/fN9t1K9uSyd93/zLSfz8R8ntLnIE/+E//FdkJCz2AP/hP/xnsaEvslzH9p9hJBxbM7BP1x9++Hng8O1huZ3H+61fsGrVnnMRx5cM6fvTD3kfPYfO2h6QbBhJgZ6TR/T64YcffuyyPKjIMu084Ot/+A//4T87twbLHMJ/+A//WWbc7SzU0f1np2WhQ/gP/+E//Cd0O1FZBv/hP/yncnSFmsZ/QkEqLIP/8B/+Uzi4Yi3jP/yH/8TGSWEh/Kdw04Raxn/4D/8JDZPKMvgP/+E/laMr1DT+EwpSYRn8h//wn8LBFWsZ/+E//Cc2TgoL4T+FmybUMv7Df/hPaJhUlsF/+A//qRxdoabxn1CQCsvgP/yH/xQOrljL+A//4T+xcVJYCP8p3DShlvEf/sN/QsOksgz+w3/4T+XoCjWN/4SCVFgG/+E//KdwcMVaxn/4D/+JjZPCQvhP4aYJtYz/8B/+ExomlWXwH/7DfypHV6hp/CcUpMIy+A//4T+FgyvWMv7Df/hPbJwUFsJ/CjdNqGX8h//wn9AwqSyD//Af/lM5ukJN4z+hIBWWwX/4D/8pHFyxlvEf/sN/YuOksBD+U7hpQi3jP/yH/4SGSWUZ/If/8J/K0RVqGv8JBamwDP7Df/hP4eCKtYz/8B/+ExsnhYXwn8JNE2oZ/+E//Cc0TCrL4D/8h/9Ujq5Q0/hPKEiFZfAf/sN/CgdXrGX8h//wn9g4KSyE/xRumlDL+A//4T+hYVJZBv/hP/yncnSFmsZ/QkEqLIP/8B/+Uzi4Yi3jP/yH/8TGSWEh/Kdw04Raxn/4D/8JDZPKMvgP/+E/laMr1DT+EwpSYRn8h//wn8LBFWsZ/+E//Cc2TgoL4T+FmybUMv7Df/hPaJhUlsF/+A//qRxdoabxn1CQCsvgP/yH/xQOrljL+A//4T+xcVJYCP8p3DShlvEf/sN/QsOksgz+w3/4T+XoCjWN/4SCVFgG/+E//KdwcMVaxn/4D/+JjZPCQvhP4aYJtYz/8B/+ExomlWXwH/7DfypHV6hp/CcUpMIy+A//4T+FgyvWMv7Df/hPbJwUFsJ/CjdNqGX8h//wn9AwqSyD//Af/lM5ukJN4z+hIBWWwX/4D/8pHFyxlvEf/sN/YuOksBD+U7hpQi3jP/yH/4SGSWUZ/If/8J/K0RVqGv8JBamwDP7Df/hP4eCKtYz/8B/+ExsnhYXwn8JNE2oZ/+E//Cc0TCrL4D/8h/9Ujq5Q0/hPKEiFZfAf/sN/CgdXrGX8h//wn9g4KSyE/xRumlDL+A//4T+hYVJZBv/hP/yncnSFmsZ/QkEqLIP/8B/+Uzi4Yi3jP/yH/8TGSWEh/Kdw04Raxn/4D/8JDZPKMvgP/+E/laMr1DT+EwpSYRn8h//wn8LBFWsZ/+E//Cc2TgoL4T+FmybUMv7Df/hPaJhUlsF/+A//qRxdoaYd3n/p8WeCA0+dOhV0JjI5q/iiU6IDg4LPXzqekRQeFnwq9+NsYmbxFxd77O3t7eXlVeygpR7iP/yH/yw18sUWi//wH/4rNhSWeujY/suIO710xFvv1vrfGzXefqv1jAMxGZc2Jylk3x9LBr367EOt14XnHc1MCts8s9EXH772vzdfferDoZ7n0y+92M5n+A//4T/8Z+fWYJlD+A//4T/LjLudhTq0/9ICfmv5xc+L95/LzEj5Y0GX+m3mnU4rWEPw7107zdu5pke+/zLCPPq16zZxxdHETCPcve//3h9zNLXgxXY+wX/4D//hPzu3Bsscwn/4D/9ZZtztLNSh/Rfp7vKFy9JT0amGkRl+eEnfGr08o4qsIT1pW4H/4nzcOo2ZsuVknGEYWeke3as1X3vh64JFzrj0AP/hP/yH/y7dEaz3Gf7Df/jPenN/acWO7r9OrhtC4jIu039DXOd4BSfjv0vbW+Zn+A//4b8yR8TJn8R/+A//OfmQl7k8R/ffh8MWBURd+PrfiiG1xh0q+mf6in397zuXiRv9Y/P859nrwR67+f5vmXuP//Af/itzRJz8SfyH//Cfkw95mctzaP9lnlnX/v0Ov+4Oz0hP9nBt92nn1RFFF1PYf1nn9gxt/eMoN5+4DCNk7Q/P1Z17puiLiz3i+7/4D//hv2K3BUs9xH/4D/9ZauSLLdah/Wdkpwcs6frMUw9XqfLQ8/8d5pmQlm2ccx/1w8CBCwNiI9f9UuORB+7+2/W33vXkW22mecVlZ4RsHvvRG0/+q0rVqvd1WBebkl1srUUf4j/8h//wX9G7grUe4T/8h/+sNfNFV+vY/ivaq+wj/If/8B/+k72r6KqG//Af/tM1s7Ld4j/ZPDVVw3/4D/9pmljpXvEf/sN/0lOlqR7+07Rbsr3iP/yH/2RnSlc1/If/8J+umZXtFv/J5qmpGv7Df/hP08RK94r/8B/+k54qTfXwn6bdku0V/+E//Cc7U7qq4T/8h/90zaxst/hPNk9N1fAf/sN/miZWulf8h//wn/RUaaqH/zTtlmyv+A//4T/ZmdJVDf/hP/yna2Zlu8V/snlqqob/8B/+0zSx0r3iP/yH/6SnSlM9/Kdpt2R7xX/4D//JzpSuavgP/+E/XTMr2y3+k81TUzX8h//wn6aJle4V/+E//Cc9VZrq4T9NuyXbK/7Df/hPdqZ0VcN/+A//6ZpZ2W7xn2yemqrhP/yH/zRNrHSv+A//4T/pqdJUD/9p2i3ZXvEf/sN/sjOlqxr+w3/4T9fMynaL/2Tz1FQN/+E//KdpYqV7xX/4D/9JT5WmevhP027J9or/8B/+k50pXdXwH/7Df7pmVrZb/Cebp6Zq+A//4T9NEyvdK/7Df/hPeqo01cN/mnZLtlf8h//wn+xM6aqG//Af/tM1s7Ld4j/ZPDVVw3/4D/9pmljpXvEf/sN/0lOlqR7+07Rbsr3iP/yH/2RnSlc1/If/8J+umZXtFv/J5qmpGv7Df/hP08RK94r/8B/+k54qTfXwn6bdku0V/+E//Cc7U7qq4T/8h/90zaxst/hPNk9N1fAf/sN/miZWulf8h//wn/RUaaqH/zTtlmyv+A//4T/ZmdJVDf/hP/yna2Zlu8V/snlqqob/8B/+0zSx0r3iP/yH/6SnSlM9/Kdpt2R7xX/4D//JzpSuavgP/+E/XTMr2y3+k81TUzX8h//wn6aJle4V/+E//Cc9VZrq4T9NuyXbK/7Df/hPdqZ0VcN/+A//6ZpZ2W7xn2yemqrhP/yH/zRNrHSv+A//4T/pqdJUD/9p2i3ZXvEf/sN/sjOlqxr+w3/4T9fMynaL/2Tz1FQN/+E//KdpYqV7xX/4D/9JT5WmevhP027J9or/8B/+k50pXdXwH/7Df7pmVrZb/Cebp6Zq+A//4T9NEyvdK/7Df/hPeqo01cN/mnZLtlf8h//wn+xM6aqG//Af/tM1s7Ld4j/ZPDVVw3/4D/9pmljpXvEf/sN/0lOlqR7+07Rbsr3iP/yH/2RnSlc1/If/8J+umZXtFv/J5qmpGv7Df/hP08RK94r/8B/+k54qTfXwn6bdku0V/+E//Cc7U7qq4T/8h/90zaxst/hPNk9N1fAf/sN/miZWulf8h//wn/RUaaqH/zTtlmyv+A//4T/ZmdJVDf/hP/yna2Zlu3V4//kv/ez9Gs8++2Ltzwbtiiq69iNz//fay88+++rnzcbtj817KmhLp2YfPfvssy+8+N3GiKIvLvHI29vby8urxGELHcB/+A//WWjgSywV/+E//FdiLCx0wKH9lxO5s//73wxf7RsWGrR8aOM6A7dE5Vzcm5yILT++3HSCZ/DZU4dnDmj59fidMXGHp3/bud+kLSfCIvdNbfJU29/C819sdz/xH/7Df/jP7s3BIgfxH/7DfxYZdrvLdGj/Rbq7vD1g3onIFMPIDD+8pG+NXp75XwKM2NDrmX6/xaVkGkbyyS2zB9Z12bLdreXQcb8fjzYMIyvdo3u15mvD7S754kFvb+/t27fHWPhjwoQJUVFRlg1g//79q1evtuzyY2JiZs+eHRQUZNkETpw4sXDhQssuPyYmZtmyZb6+vpZN4OzZs9OmTbPs8mNiYjZu3Lhnzx4rJzBu3DgrL3/37t0eHh5lOanEc7YSRyrqQKS7SyfXDSFxGXb919J1V2J6dmH/DXGd4xWcfJn+8/f3X7hw4Xw+SIAESIAESIAESMBiCSxcuNDX1/dPAe6q+q/JuBWBMWl5/ls+sObQvYkXW43Y0OvjsZsT0rLy/Dd/WIPJHrvcuk2YvuNUwgX/9Xzg+61xf2pdvJgESIAESIAESIAESMB+AlfPf0lHFzRo2n/d0eiszNRDq4e1ab44OL+lxANTa9Ub6BWWmp0W7TFvaJcua08FburauY/rppMpWUa0z/jPa0w+kf9ificBEiABEiABEiABEjCTwNXzn5EatqF/x8+aftvuuw4t6nedsCc41Yg//vu8FSt2nYsMXtmlRZ1m7dq1ad+qWd9ZB8LS0iN3Tx3Q7OsWrdt1aP7+N323nMz9TjAfJEACJEACJEACJEACphO4iv4zjNSIIxvXrV6xYtXGrSfjc1tPPXd8v69vUGK6kRp2cM3qlStWrN22MzD3m76GkR59aue2dStWrFi56lDuj4HwQQIkQAIkQAIkQAIkIJHAVfWfRMPUIAESIAESIAESIAESMJUA/jMVHyeTAAmQAAmQAAmQgLoE8J+6LaNhEiABEiABEiABEjCVAP4zFR8nkwAJkAAJkAAJkIC6BPCfui2jYRIgARIgARIgARIwlQD+MxUfJ5MACZAACZAACZCAugTwn7oto2ESIAESIAESIAESMJUA/jMVHyeTAAmQAAmQAAmQgLoE8J+6LaNhEiABEiABEiABEjCVAP4zFZ/Jk8PX/fLEo9Wrlfj4YeGR5EyTtUs5Pd53xndfPFOt2hdjPZIzskt5EYevXgIR63s89W8710Cn+YcSMyqmjfgjv7av92y1ap+P3p6YzjVQMSH/maoRG3r/54mHStwGqn0/90BC+p8pdDmvTYvwnNblzUJv1uRX38s5j9dUeAI52Xsnf1loZy59Oto7q6LePcqzT+1XH3ngwR9Wn62ot6CuoyaA/ypzZ0KXf3vbTddfd8sd91W59HHfnbddf91frrvhxp7rwuNThcY+Jzs9Oe7wmhFfvnjNNbbcjzcGbEri//src/MvvnfYb9/dfssN195c9Bq467brr7v22uuu7742PE7uGshIjvNdO+qrly9eA6/3W5+Qhv8q/yIIW9HhzttKXgN/u/66a6+55i/d1ghdAzk5sYF7+n58zXU33vSPu/954Y5z3x23/OUv191XvdeOpAr6r43Kj1dNBznZO4fXsP3lur/+7a6L25O3SffdcfM111xz7yPPjveIErtp52SmxEfvmdnileq5d4Nr/nJt00UhaoKiUaEE8J9QkFdUJtd/t9368DfLIgqdHvPH9K8+eeOhO6776z/uaznVMyql0HNX9mlOdnLYwVm9Gjxku+Ef91WtesftN+K/K0uyAs7K9d/fbnmw1ZLwQsVjvF0bffa/h++87sa/39N8snukxDWQEu4zu2/Dh2033H5v1ap35l4D+K9Q5JX5aa7//n5zteaLi14DM5t8/ubDd15/w213fT1J4BrISj+3uO2z19102wsNflp7/MK/sm5E7hj55tP32m6799X+W+Ir6HsOlRmtqve+4L/bH/lwyNbC/+T9uc39Xn7x6X/darvj36/0W34o3vyXhLPSIv23DP767ftsN91bvfq/bv7rtfhP1ZUi1Sz+k0rySurY9V9eoeitI+o8aLPd+dgrw7eeN/sf5hnJh1yb3XLHfa/UbjNs1pwxjT54EP9dyXZVyDl2/XfhGtgx6uPqNtsdD784dPN5s/f8zNQjs5rf/I97X6n9zZCZc8Y1+ag6/quQ/bySonb9l1coxnPsZ9Vttn889NzgTWavgejjU2vabqj2XMP5R+MLd3l2S7cHbTc+8Fzz5QFphY/z+dVOoBT/GYaRlug3s+1z/7LZqr/d1O1gnFmoxwbM61HnH9X+XaNOpxmblg149t+34r+rvdkO8X74rzK3oXT/GVkZfi6vVbHdfE+N9hOOxplrMis9bM/8/qOmHjxnGEbg4pb4z1yeomeX7j8jJ+vk6Ner2G6+642244+YvAayM8K9FvRzmXzhGlj6Df4T3UVzxUr3n2HknB77RlXbTXe+1masb6ypt/Ee+aLt+rtfbrQwqGiZzPR9P1Wx3fzQC13WBhd9hkdXN4HS/WcYWVF+azv9527bHY82HbUqJNlcYymRe9dMHTVn9ancu4rv2Bfxn7k81Z6N/ypz68rwn5GdeXRhm2o224P/q7fI1/73/+JOe8wf93PpHzM9AqJKfO0Q/1Xmjpd87zL8ZxjZxxd9e7/N9uDrny84bP+WHxe4c8H40i+Bn13dT0SWvAbwX8mNqMQjZfnPME4s/e5+m+3+Vz+Z51PKNRC0e+GEMq6BGTv8z6cbcYtb/t329yo1RuwsdjfJzoycUtdmu+fJepO8iz1ViZlY8a3L8p+RlRCyatBn99hszzXpu/OM/e8HnPNZPG5IGVfComPJJW4G+M+Kl9rFNeO/ytz8svxnZJ/3nfGRzXbTf94ftMX+n8wN8Rhd/8W8n+aw/z91xmwLKHFDx3+VueMl37tM/+VEHZ35sc120//V6r/5TMlzDcMI9Rz/1cv2tz/v6Psum0+UUEMg/rMbZmUdLNt/Mf6zPrXZ/vpUzd4b7X99LnTXpMavlHENvDdig1+S4TvosdtuvKf6N8sCiy0zJyt9fc/Hbf947JNh22OKPcfDq5lAmf4zsuMOuPV8zWa7rVaH5Yej7PZ1fHGLFx8o40potiaqxM0A/9mN0hoH8V9l7nOZ/suJC93U6Qmb7Yl3u649ZbfLtLjQYwc8Sv/wDY1NLfHjnfjPbpaVdrBM/xkJZ7d0ftJme/ztn9YE2G0xPT7s+MHSLwEP35DYlJLXAP6zG2ZlHSzbf4nntv/0lM32WI1Oq07a7TA9/qxf2ddATEqW4d3t9ltvue/hX9YV/iGT3Ho5WRnuQ9+0XXd/7W+WFvvWsN2342BFJVC2/4zUUzsm1nvAZnuzzfz9hX9i8FI7yef9D/xRxt3AP9rO3/nF938vBWi1z/BfZe542f6LP+ve9eVL/ovaNaHOm89Ur/7QS69PPHLlXeO/K8+uIs4s23+JEZ6/vHLJf9G7J3381jPVq1d/+oX/zrryi4Cv/1XETl55zbL9lxS5u8d/i/jv/NbBr7/wRMff7H9JuJQ+yvOfreo7jRbY/4+MUipyWDiBcvyXFrRrWqMnCvkv4vfmjz9WvXr1Gl+0Wn/6invBf1ccnfoT8V9lbmGZ/suOOjGv/jW2vzxZq/u604ZxesmY3/44Hp6Slrbo5/vfGL+vxBd1LnMh+O8yg7pKLyvTfzkxpxY0uMb2lydqdv39lBF7YPzQ+TuOnU1JT98zpu4zr449fIUXAf67Spt7mW9Ttv/ighc1vMb2l3+/9dOaU4YR9Fu7Bq0HTRtX975G8/7U/+fv63HPrTff+/BPa8KKdZWTlbF90Ku53/8duo3v/xYL56o+LNt/OQmHf+v/9jW2a9/6duGBc0bm3gH/fqz5PL/02DO/j2z/frNxB65w8/DfVd1kh3oz/FeZ21GW/3KyAtd1f8p23QNvNFp4qNDf15CTuLb7e2/22RJjGBmJ504f31/6x8lzdv56X/xXmTte8r3L9l/whh5P2669/7UG83wKXQOGEek5+rNnu7pHGxmJ50/7lX4J7D8ZYe8a4Pu/JTeiEo+U7b/QTb3+z3ZttVe+nHOg4BoIX9ysWoH/MpLOB5Z9DcSnZhvn5nz1N9s/qr09YW+xvz0kOzNx1tc2252PfzZ6Z8EbVGIa1n3rMv2Xkxy+ZWzz6rYbnmnU3zM4JcN73MOPdfdMzTSM9DN/zBz2c+v1p7JSY4KO+5ZxNwiKyyz5n4z4z7pXHP6rzL0vw3/ZmRELmj5lu/6+N1tMO5qY12TCGY+tG1auHFb/pU9dvXP/W4+f/6jMzRN67zL8l5N93q3Z07br732j6ZQjF/++3gvvmrJvXMM3m+T+aS1+/kNoHyqzTJn+i17c4mnb9Xe/1niS76VroIj/Lu/nPwzPAY/Y/nrPf9suL/YFwMx4785P2W6q/kLntfZ/zqwyo7HUe5flv+z44F0D6jxku+nJpkPXhaQa4b93faDe2BPpWYaRGbZ/fr8fGy08GMvPf1jqejG/WPxnPsMrr1C6/5KOru32us126/3P/rQ4/+c3w/YM7/9Lu3btWg2Z6Lb8cLRhxJ7c6jqsXekfk7b62/m7P/j7/658wyrgzNL9l+S3vscbNtstVf/zg5t/UqG3Dt83rkX9L2Yfyv3Lu2IDts8cXvol0G7iluPnSvxdEXz/t1CaDvBp6f5LPrGp9xs2281Vnvp+gV+ha6CI/2JPuc8aUcY1MGHz0Yh0wwhd2+mftlse/e+PG8JSCy86xrP/I7YbH36p5cbiPxlS+FV8XvEJlO6/zLSwDaMb/sdmu+vFuhPdQ9ONwv7Ljji0ZEj3XP9F7J83rFcZV8Ic36QSNwN+/rfiN9Zh3wH/VebW2Pdf+L4JLt0/evym62+5/cOfpxyJLNZhjt/izu++1N+r0P8bFHtFmQ/5/m+Z8Vz1J+37L2L/pNHdP3ny5utv/vsHP03yLXQWN8suAAAK90lEQVQNhO2e0u7b+v1XHrnwReEr6hf/XVFsFXaSff9FHJg8puenT91y3U23vdd5QuFrwDCK+O8y+0qP+KPzC7ab7qr6eY8Z+0Mv/sVQoTsndP788etvubdurx2FrrLLLMnLRBMozX9ntnf9sfnrVWy3/uvRNqNXBuV9kz7Jc+hDL/ffm3bx+78DO7dY5VeE9ZfdGd//veyonO6F+K8ytzTXfzffeNujNb5sWujj49fuuO2vf7n2uoZDlu0Lyf/7+5JOrtrqczY6xcjJ8Z3d5n8vD913+cOek3n+0Io+F9/hizcfqXKrzXbPs+82avx106bf/DJoid+l7ytVZhrWfO9c/916462PvFnsGrjzb3+95i/XNhhc6Bowko6udmnRuuXglfv/NP5zMiN9V/bNvwZqPFo19xp45p2GeddAtwGL8/89WGtuQiWvOtd/f7vxloeLXgOfvH7X32+y2a6pP2jp3oL7wMVOr8R/OVnpB5e1edlmu/nu+1//sMGFa+HDF++44YZr//n1iEu3mkoOw8Jvf8F/N9xW9blaF7fnwiZ98Nw119j+/s+Hvp+62e98/r/RF72pVfU3JvumGalRu2YNbN1xwuHLvylkxB7dMLPrxbvBxy/d+bfrrrnm4Tfr5h3oOGLm9uKXm4X3xLmXjv8qc39z/XfTdSX+vs7Hmg6Zt2HL9gv/nXexv4yQ5cNafVbrzZo1a771SsMxG0Muf9iN7LTT6/u9UOJt8g7c+uQb3d35D//Kuwpy/XfL9SU259Emg+au37KtyDUQuuOHL5696c4HXnijRs2aNWvWa9Z3w2X/BGh2etDGAaX8ZeG3PP5qN774U3mXgJHrv9tuKHENPNJ4wOzfN28NLPJP/4VtHvhT/ZpvPH3fjfc++epHDVvO2Xf5/ypcTnpy+P4l09t+UL3Qez3VYdqa3UWus0pMwtpvfcF/hfYm/9Nneizc4rlnb3iRm35i0OrB9V9+p2aNWp/X67nA+/zlf0HASD27dUzrx/KrF/39vtqtp/vyc0DWuBLxX2Xuc2ZixMkTJ/yLfwRHJWXkFO8rKzk69PTJ3JcGnApPKvYjfMVfXOxxTkZSVHDxd7nw+GTgmciUrGKv5+HVSyAz8dzJk3avgfTi10BG4tmQwEvbeCowLD7/iwHl95uTkcw1UH5MlfKKzMRzAXaugaDIxPQSP66ZEX825FT+RXDydFBU8p+b3pzMtJiIoPwC/v7+Z2LTSrxJpaTAmxpGSvSZQltT8OmZ+JL/bJthGJkJobn/93EyKCTqz93DczKTYyIK3UoK3sj//9u5158orjCO4/9K2/RF37Q2TUxqrUkTa0tqqxYrXqCxSCkgWiBQi41FRAVLAREsjVZRUQFLEES0FEFUBFHUIldBgcUFlsvKnb3N7pxmFzVrgtHNIGSY72Ze7O7M2XOez3Ne/DK70Nraru8bYUdoZDOS/zTSaMpEAAEEEEAAAQSeCJD/2AoIIIAAAggggIC2BMh/2uo31SKAAAIIIIAAAuQ/9gACCCCAAAIIIKAtAfKftvpNtQgggAACCCCAAPmPPYAAAggggAACCGhLgPynrX5TLQIIIIAAAgggQP5jDyCAAAIIIIAAAtoSIP9pq99UiwACCCCAAAIIkP/YAwgggAACCCCAgLYEyH/a6jfVIoAAAggggAAC5D/2AAIIIIAAAgggoC0B8p+2+k21CCCAAAIIIIAA+Y89gAACCCCAAAIIaEuA/KetflMtAggggAACCCBA/mMPIIDA/BSwW8ZK01cerDI+La8zf/OxK21NeRGLF0w9vIPTKrufnhUO6fauxUv9c1uevSOEaM72+2TRggULl/gkXnnsfuI1P39YFLkz5/KwyeGaZ6K19GJuzF8Zu37LyL5ttLzmufl4BBDQgAD5TwNNpkQEVCIgy7JNclgVH3aH7KxYMt3L3fZZzL+Dzley437eqr25db33szZ8k9lgNBp7aot/X+e9Nuliy6Trgs5c/682hQcsy2h2jRayo/G0/0fbDzTqeo29utvFaamVgy+ElGVZkhxWq/JDliQhy/b6o0u+T68ZmHAufVSXfyo5Kr9pfHh0bMLqkB2SWZIki8lkMlus9qnVvnBlnEAAAQSmESD/TYPCWwggMCcCt+4P/pBW9UXMJSWHT8KVP4tbxidtQtj7mwt3e0WW9diFY6Bs37e7T5T1m3pO+m7Ie3LXb+BacshPUekNA7KQ2g/7bsq+V3MozOvQXauz/IHrv67YnX3rkevFSzwmu/VNSYlXvVdeXu6l5LjqvbI+LnbsQZsQbYc/9Uu50itkW++9vxNDN/6j05+Pyjid89+IuBv/Zlh8yrq333pj4bKvs+rMUzcJX7JETiOAAAJuAuQ/NwyeIoDAnArsL2haEVuuJPxNjfVNvGoYMgkhzMa2M8lrky52mQ2VcZsSTlW0m4V7/hO68r2xqftquy2WlswNm/MGrCM3i5IDUq6NSkI8KFwdtv9sS7/9FUwGqquqNvopSX7Pxl7zWW24VCqEaMvxWbuvzGwdu5OTEBxc0C3c898HUSW90nBndkpE8MGqkVdYIZcggAAC7gLkP3cNniOAwFwKNOqGDpxrTspvVHgUVHdNmiVnJdJYY/nR+PgjFeczw1Mzb+gnxHP5z9RwZm/qHydah4er47w/Dow/efJoyo5gv2WRJV1W8agk0D8xr77X9UEvYTH39+nO5DYnJSo/2rOOTz7qcs43fP3n9VtKH+py9gT9UtYtnst/MZU2u7AO3jh3JIH895LmcBoBBKYRIP9Ng8JbCCAwXwTsxubixOhV64P3HM+/YbQJ9/w3YahOj9yccPj6QE9pwOfrAyOioqOjoyNCfAOC4s63WyZbMwODgo6UD1nswm4xttdUdU7OLsvYtZ0fLo1N37Nlf73zd4Du9//If7PbCmZDYN4JkP/mXUspCAEE3ASkodZTu9csWh5ecMvgupPXc2zNe17fhYaGhvqHbYlIO17bOdRVHP5lTLZu3PVLP2vf5WMp23ec1ZnN+trsbVt9Q0KCQ7f+uC0lq0Lv/E55Nh/jNxPefef9rRl1ronJf7Npz1wIzHMB8t88bzDlIaB1Abupv+1OdU19//jUF7lm3c0LhVOP8urmPuctvdGumjsdBtuTv6S1jeg7Wut0Y87LLYaGigtFhYVFFyoaDHPwf1dM+uoLJQ0Gs6uJJkNjh757xCZGWktbjA5ZOKxDBl1bx2PnbU0eCCCAgCcC5D9PtLgWAQQQQAABBBBQvwD5T/09pAIEEEAAAQQQQMATAfKfJ1pciwACCCCAAAIIqF+A/Kf+HlIBAggggAACCCDgiQD5zxMtrkUAAQQQQAABBNQvQP5Tfw+pAAEEEEAAAQQQ8ESA/OeJFtcigAACCCCAAALqF5iB/CfLstkyB/8YS/34VIAAAggggAACCMyBwAzkP0mSuvTdc7B2pkQAAQQQQAABBBDwXGAG8p/VJjW0PRgdG/d8dkYggAACCCCAAAIIzLbADOS/2V4y8yGAAAIIIIAAAggoECD/KcBjKAIIIIAAAgggoEIB8p8Km8aSEUAAAQQQQAABBQLkPwV4DEUAAQQQQAABBFQoQP5TYdNYMgIIIIAAAgggoECA/KcAj6EIIIAAAggggIAKBch/KmwaS0YAAQQQQAABBBQIkP8U4DEUAQQQQAABBBBQoQD5T4VNY8kIIIAAAggggIACAfKfAjyGIoAAAggggAACKhQg/6mwaSwZAQQQQAABBBBQIPA/dBjtWUUsxowAAAAASUVORK5CYII=;clipPath=inset(93.2% 35.33% 1.46% 42%);" vertex="1" parent="1">
          <mxGeometry x="711.1" y="-30" width="185.45" height="30" as="geometry" />
        </mxCell>
        <mxCell id="HKypCNGywmoDcbvKpc3D-12" value="&lt;font style=&quot;font-size: 14px; color: rgb(204, 204, 0);&quot;&gt;Vin &amp;gt; Vref&amp;nbsp;&lt;/font&gt;&lt;div&gt;&lt;font style=&quot;font-size: 14px; color: rgb(204, 204, 0);&quot;&gt;=&amp;gt; Comp_out=1&lt;/font&gt;&lt;/div&gt;" style="text;strokeColor=none;align=center;fillColor=none;html=1;verticalAlign=middle;whiteSpace=wrap;rounded=0;" vertex="1" parent="1">
          <mxGeometry x="160" y="260" width="110" height="30" as="geometry" />
        </mxCell>
        <mxCell id="HKypCNGywmoDcbvKpc3D-13" value="&lt;font style=&quot;font-size: 14px; color: rgb(204, 204, 0);&quot;&gt;Vin &amp;gt; Vref&amp;nbsp;&lt;/font&gt;&lt;div&gt;&lt;font style=&quot;font-size: 14px; color: rgb(204, 204, 0);&quot;&gt;=&amp;gt; Comp_out=1&lt;/font&gt;&lt;/div&gt;" style="text;strokeColor=none;align=center;fillColor=none;html=1;verticalAlign=middle;whiteSpace=wrap;rounded=0;" vertex="1" parent="1">
          <mxGeometry x="330" y="150" width="110" height="30" as="geometry" />
        </mxCell>
        <mxCell id="HKypCNGywmoDcbvKpc3D-14" value="&lt;font style=&quot;font-size: 14px; color: rgb(204, 204, 0);&quot;&gt;Vin &amp;lt; Vref&amp;nbsp;&lt;/font&gt;&lt;div&gt;&lt;font style=&quot;font-size: 14px; color: rgb(204, 204, 0);&quot;&gt;=&amp;gt; Comp_out=0&lt;/font&gt;&lt;/div&gt;" style="text;strokeColor=none;align=center;fillColor=none;html=1;verticalAlign=middle;whiteSpace=wrap;rounded=0;" vertex="1" parent="1">
          <mxGeometry x="495" y="110" width="110" height="30" as="geometry" />
        </mxCell>
        <mxCell id="HKypCNGywmoDcbvKpc3D-15" value="&lt;font style=&quot;font-size: 14px; color: rgb(204, 204, 0);&quot;&gt;Vin &amp;gt; Vref&amp;nbsp;&lt;/font&gt;&lt;div&gt;&lt;font style=&quot;font-size: 14px; color: rgb(204, 204, 0);&quot;&gt;=&amp;gt; Comp_out=1&lt;/font&gt;&lt;/div&gt;" style="text;strokeColor=none;align=center;fillColor=none;html=1;verticalAlign=middle;whiteSpace=wrap;rounded=0;" vertex="1" parent="1">
          <mxGeometry x="660" y="120" width="110" height="30" as="geometry" />
        </mxCell>
      </root>
    </mxGraphModel>
  </diagram>
</mxfile>
